<?xml version="1.0" encoding="UTF-8"?>
<svg version="1.1" xmlns="http://www.w3.org/2000/svg" width="512" height="512">
<path d="M0 0 C11.17654356 8.58752368 17.94135894 19.90845805 20.39453125 33.83984375 C20.97105897 39.19344541 20.97301454 44.55633436 20.91601562 49.93505859 C20.89454826 52.33793987 20.91594361 54.73783304 20.94140625 57.140625 C20.97187026 73.34550045 17.51918912 87.27710449 6.20703125 99.52734375 C1.48580128 103.9886895 -4.13475659 107.38134755 -9.60546875 110.83984375 C-9.05632393 117.31975259 -8.23440276 121.28602214 -3.41796875 125.96484375 C6.82182705 132.79137429 19.76156532 133.24367544 31.59375 131.19140625 C56.32408738 126.18819184 77.56995833 112.39562763 91.76953125 91.46484375 C101.81563354 75.9880966 106.59749406 59.13239342 107.44824219 40.84130859 C107.9385121 33.51548758 110.5660695 28.39892819 116.01953125 23.46484375 C122.72854677 20.23457702 129.97716982 18.86340731 137.25390625 20.87890625 C141.9974598 23.00831167 145.9842357 26.40513157 148.59375 30.91015625 C155.3928231 55.78481392 144.3229599 86.32212222 132.39453125 107.83984375 C128.04530063 115.3797763 123.01369302 122.20188068 117.39453125 128.83984375 C116.69457031 129.67515625 115.99460937 130.51046875 115.2734375 131.37109375 C96.52848291 153.02301991 70.863659 166.06191348 43.39453125 172.83984375 C43.39821842 173.99997828 43.40190559 175.16011282 43.4057045 176.35540295 C43.49232022 203.88947388 43.55828543 231.42353118 43.59879257 258.95771019 C43.60379544 262.34607461 43.60897273 265.73443874 43.61425781 269.12280273 C43.61530705 269.79737012 43.6163563 270.47193751 43.61743733 271.16694633 C43.63484655 282.09204289 43.66638704 293.01705533 43.70314243 303.94210198 C43.74053755 315.15071131 43.76246462 326.35927858 43.77088523 337.56795341 C43.77610688 343.86435788 43.78840724 350.1605715 43.81745148 356.4569149 C43.84455561 362.3805409 43.85298628 368.30389701 43.84696198 374.22757912 C43.84806444 376.40405874 43.85604785 378.58054718 43.87135315 380.75697327 C43.89120241 383.72456167 43.88648859 386.69112597 43.87554932 389.65873718 C43.88720068 390.52352729 43.89885205 391.3883174 43.91085649 392.27931327 C43.87183463 396.18533621 43.63970557 398.39546672 41.72028732 401.87440109 C38.83542379 404.31233253 37.44835112 404.46585509 33.70141602 404.46803284 C32.54054474 404.4806868 31.37967346 404.49334076 30.18362427 404.50637817 C28.91388763 404.49468597 27.644151 404.48299377 26.3359375 404.47094727 C24.9822394 404.47608657 23.62854799 404.48336795 22.27487183 404.49263 C18.60115173 404.51115154 14.92815696 404.49820153 11.25446701 404.47853971 C7.40995179 404.46215767 3.56548268 404.47096546 -0.27905273 404.47605896 C-6.73530671 404.48058045 -13.19127101 404.46470694 -19.64746094 404.43676758 C-27.11163582 404.40471518 -34.57528826 404.40473107 -42.03950024 404.42198235 C-49.21993244 404.43784644 -56.4001731 404.43111471 -63.58059692 404.41404533 C-66.63637389 404.40717287 -69.69199741 404.4082092 -72.74777222 404.41559029 C-76.34635089 404.4232519 -79.94433506 404.41113214 -83.54281235 404.38374138 C-85.49337144 404.37357001 -87.44400191 404.3830414 -89.39456177 404.39306641 C-90.55543304 404.38034195 -91.71630432 404.36761749 -92.91235352 404.35450745 C-93.92113052 404.35170053 -94.92990753 404.3488936 -95.96925354 404.34600163 C-99.33260629 403.70023209 -100.52462583 402.51167516 -102.60546875 399.83984375 C-103.08648682 396.92913818 -103.08648682 396.92913818 -103.05957031 393.51074219 C-103.05911713 391.58920319 -103.05911713 391.58920319 -103.05865479 389.62884521 C-103.0382297 388.23563004 -103.01736574 386.84242125 -102.99609375 385.44921875 C-102.98863006 384.02004793 -102.98293773 382.59086685 -102.97894287 381.16168213 C-102.96369625 377.40657113 -102.92442391 373.6520825 -102.88012695 369.8972168 C-102.83915262 366.06307392 -102.82092731 362.22883013 -102.80078125 358.39453125 C-102.75792778 350.87601885 -102.68968942 343.35801863 -102.60546875 335.83984375 C-105.8553001 336.92769343 -105.8553001 336.92769343 -108.60546875 338.83984375 C-108.70793025 340.68493671 -108.74118262 342.5339104 -108.74731445 344.38183594 C-108.75434891 345.56686707 -108.76138336 346.75189819 -108.76863098 347.97283936 C-108.7748774 349.91020966 -108.7748774 349.91020966 -108.78125 351.88671875 C-108.79850643 353.90120476 -108.81578634 355.9156909 -108.83445263 357.93016434 C-108.8800981 362.91435055 -108.9177601 367.89842885 -108.93139648 372.8828125 C-108.94149543 376.34665398 -108.97087183 379.80987831 -109.01271629 383.27347565 C-109.03097848 385.2325906 -109.02838006 387.19186411 -109.02546692 389.15106201 C-109.04195786 390.34870178 -109.05844879 391.54634155 -109.07543945 392.78027344 C-109.08130569 393.83204773 -109.08717194 394.88382202 -109.09321594 395.96746826 C-109.74942899 399.64707773 -110.99214977 401.18977184 -113.60546875 403.83984375 C-116.26009464 404.46346283 -116.26009464 404.46346283 -119.34327698 404.46130371 C-120.51400757 404.47251251 -121.68473816 404.48372131 -122.89094543 404.49526978 C-124.17160385 404.48200653 -125.45226227 404.46874329 -126.77172852 404.45507812 C-128.1368987 404.45857984 -129.5020648 404.46423899 -130.86721802 404.47189331 C-134.5718809 404.48614298 -138.27580172 404.46907976 -141.98039365 404.44560814 C-145.85606188 404.42550706 -149.73169908 404.43137823 -153.60740662 404.43371582 C-160.1149419 404.43366225 -166.62218683 404.41390291 -173.12963867 404.38183594 C-180.65625625 404.34492741 -188.18249369 404.33616242 -195.70918995 404.34313345 C-202.94727631 404.34943511 -210.18523214 404.33869147 -217.42329216 404.31916809 C-220.50498246 404.31098728 -223.5866061 404.30828578 -226.66830635 404.30986023 C-230.29552966 404.31073816 -233.92239081 404.2965482 -237.54951859 404.2706337 C-239.51815753 404.26003716 -241.48685831 404.26414835 -243.45552063 404.26864624 C-244.6234314 404.25729645 -245.79134216 404.24594666 -246.99464417 404.23425293 C-248.52025388 404.22865986 -248.52025388 404.22865986 -250.076684 404.2229538 C-252.60546875 403.83984375 -252.60546875 403.83984375 -254.39364529 402.50269318 C-257.18824726 398.66797432 -256.78891607 394.42919254 -256.79296875 389.90234375 C-256.80521484 389.18626953 -256.81746094 388.47019531 -256.83007812 387.73242188 C-256.85016169 380.50903449 -256.85016169 380.50903449 -254.60546875 377.83984375 C-252.62546875 377.17984375 -250.64546875 376.51984375 -248.60546875 375.83984375 C-248.60546875 369.23984375 -248.60546875 362.63984375 -248.60546875 355.83984375 C-250.58546875 355.17984375 -252.56546875 354.51984375 -254.60546875 353.83984375 C-256.98204668 350.75446187 -256.98258239 347.39076799 -257.23046875 343.58984375 C-257.30523437 342.5121875 -257.38 341.43453125 -257.45703125 340.32421875 C-257.53050781 339.09445312 -257.53050781 339.09445312 -257.60546875 337.83984375 C-258.85199219 337.49953125 -260.09851563 337.15921875 -261.3828125 336.80859375 C-285.13016306 330.13295226 -304.29458016 319.30683867 -322.60546875 302.83984375 C-323.60126953 301.95232422 -323.60126953 301.95232422 -324.6171875 301.046875 C-346.86758609 280.04125396 -361.79447803 246.82318339 -362.84375 216.37109375 C-362.87405002 214.3607532 -362.898662 212.35031993 -362.91796875 210.33984375 C-362.96147461 208.82970703 -362.96147461 208.82970703 -363.00585938 207.2890625 C-363.06050956 200.87397205 -362.40957262 197.05829394 -358.60546875 191.83984375 C-352.56831378 186.11228647 -346.91898097 185.36564033 -338.83203125 185.5390625 C-333.35357126 186.0497664 -329.71870065 187.50037778 -326 191.6171875 C-321.35382009 198.03106567 -320.56509173 203.62225636 -320.04296875 211.40234375 C-317.60526346 237.52453054 -307.21765129 259.95068991 -286.89453125 277.078125 C-268.23403571 291.43970092 -247.11888699 298.68403342 -223.60546875 296.83984375 C-217.30594458 295.89659949 -213.60056024 293.69257595 -209.7578125 288.59375 C-207.15170566 284.62716705 -205.79863934 280.71848705 -205.8984375 275.8828125 C-207.20560827 272.10573894 -210.67973404 270.58309299 -213.9375 268.54296875 C-224.87928293 261.55817027 -230.42706324 250.27617886 -233.23556519 237.90615845 C-234.28868234 232.02335098 -234.15230032 226.01758123 -234.07202148 220.06201172 C-234.04290754 217.70989835 -234.05149661 215.36003189 -234.06445312 213.0078125 C-234.04231606 196.40250209 -230.55108569 182.32731974 -218.86328125 169.90625 C-208.2130716 160.15891279 -194.97544495 155.43472196 -180.6640625 155.62890625 C-165.7848314 156.65506012 -153.68390078 162.95307331 -143.60546875 173.83984375 C-133.55090891 186.49472079 -131.93398466 199.67865441 -132.08398438 215.2512207 C-132.10546703 217.90213157 -132.08406601 220.5503419 -132.05859375 223.20117188 C-132.03115844 239.54229189 -135.83506945 253.80193537 -147.60546875 265.83984375 C-151.47835603 268.8282217 -155.40063735 271.82164036 -159.85546875 273.87890625 C-161.90076675 274.75008673 -161.90076675 274.75008673 -162.54296875 277.46484375 C-162.64464682 282.95545959 -161.2091975 287.14447336 -157.41796875 291.15234375 C-146.04841579 297.97407553 -133.65219843 297.59042421 -120.98046875 295.46484375 C-119.77003906 295.27535156 -119.77003906 295.27535156 -118.53515625 295.08203125 C-113.70264007 294.29753187 -109.38034306 293.20409355 -104.60546875 291.83984375 C-104.60546875 252.56984375 -104.60546875 213.29984375 -104.60546875 172.83984375 C-113.02046875 170.36484375 -113.02046875 170.36484375 -121.60546875 167.83984375 C-124.7186337 166.67331259 -127.66923024 165.53421684 -130.66796875 164.15234375 C-131.77446777 163.64815918 -131.77446777 163.64815918 -132.90332031 163.13378906 C-146.70852669 156.65909415 -158.41297444 148.12299525 -169.60546875 137.83984375 C-170.34023437 137.18757812 -171.075 136.5353125 -171.83203125 135.86328125 C-195.29974334 113.94076831 -208.91960033 80.61590903 -210.60546875 48.83984375 C-210.68474609 47.35871094 -210.68474609 47.35871094 -210.765625 45.84765625 C-210.99007785 38.02108306 -210.42794369 32.27258355 -205.29296875 26.02734375 C-199.55332141 21.35553777 -193.71734196 19.35509715 -186.33984375 20.0546875 C-180.83333262 21.03799306 -176.60851107 22.90224626 -172.60546875 26.83984375 C-168.65584786 32.58215274 -167.9278349 38.27796038 -167.54296875 45.08984375 C-167.02632534 52.09140017 -166.2478304 58.61763693 -164.19140625 65.3671875 C-163.47675365 68.38302146 -163.2588887 70.74883329 -163.60546875 73.83984375 C-165.60546875 76.71484375 -165.60546875 76.71484375 -167.60546875 78.83984375 C-167.11175781 79.81566406 -166.61804688 80.79148437 -166.109375 81.796875 C-165.46213344 83.0819778 -164.81500387 84.367137 -164.16796875 85.65234375 C-163.84248047 86.29494141 -163.51699219 86.93753906 -163.18164062 87.59960938 C-161.81314199 90.32249841 -160.5706361 92.94434169 -159.60546875 95.83984375 C-158.94546875 95.50984375 -158.28546875 95.17984375 -157.60546875 94.83984375 C-154.09795787 94.45012032 -152.20534925 94.47068652 -149.16796875 96.33984375 C-147.09429734 98.36293781 -145.23529645 100.39455071 -143.35546875 102.58984375 C-129.31346339 118.82685208 -108.824814 128.90942862 -87.60546875 131.83984375 C-77.57337041 132.3804335 -68.48075347 132.54382759 -59.73046875 127.02734375 C-54.51953521 121.66314746 -54.01512391 115.98762 -53.60546875 108.83984375 C-54.23453125 108.42734375 -54.86359375 108.01484375 -55.51171875 107.58984375 C-68.28426406 98.97222282 -76.49022218 89.34933892 -80.18881226 74.04354858 C-80.88510917 70.36081978 -80.93061258 66.72350191 -80.94140625 62.984375 C-80.94806305 62.16088058 -80.95471985 61.33738617 -80.96157837 60.48893738 C-80.97164435 58.75526134 -80.97639728 57.02154703 -80.97607422 55.2878418 C-80.98042889 52.67624765 -81.01676056 50.06637224 -81.0546875 47.45507812 C-81.16543206 31.06000508 -77.96239088 17.37230103 -66.35546875 5.08984375 C-48.14724242 -12.20186112 -20.68557898 -14.32544489 0 0 Z " fill="#080707" transform="translate(362.60546875,108.16015625)"/>
<path d="M0 0 C11 2 11 2 13.36010742 2.51220703 C20.85631607 4.05653153 28.05158173 4.23647326 35.6875 4.125 C37.47317383 4.11146484 37.47317383 4.11146484 39.29492188 4.09765625 C42.19683367 4.07434772 45.09830317 4.04163123 48 4 C48.21914063 4.845625 48.43828125 5.69125 48.6640625 6.5625 C51.68648199 17.37440713 55.96163049 25.38884229 66.015625 31.15625 C74.03601292 35.31496966 82.01641857 36.38692285 90.94921875 34.31640625 C101.09367014 30.90662552 108.0134352 25.51729881 113 16 C113.76904536 13.91451448 114.49253459 11.81171917 115.171875 9.6953125 C115.51831055 8.62555176 115.86474609 7.55579102 116.22167969 6.45361328 C116.47852539 5.6439209 116.73537109 4.83422852 117 4 C117.76441406 4.02094727 118.52882813 4.04189453 119.31640625 4.06347656 C138.95816148 4.63014478 138.95816148 4.63014478 158.09375 0.875 C161 0 161 0 165 0 C168 6.625 168 6.625 168 10 C166.75863281 10.39832031 165.51726562 10.79664063 164.23828125 11.20703125 C162.59624897 11.74186462 160.95432768 12.27703885 159.3125 12.8125 C158.49587891 13.07353516 157.67925781 13.33457031 156.83789062 13.60351562 C148.60943964 16.17739833 148.60943964 16.17739833 142.89862061 22.37304688 C140.31104554 27.75898329 140.42680558 32.95011559 140.45410156 38.83203125 C140.43859505 40.57479591 140.43859505 40.57479591 140.42277527 42.35276794 C140.39340225 46.17282103 140.39184918 49.99234298 140.390625 53.8125 C140.37563965 56.46910294 140.35910556 59.12565113 140.34051514 61.78222656 C140.30005802 68.04704255 140.27963879 74.31175471 140.26654124 80.57668114 C140.2490738 88.41450083 140.20464069 96.2521388 140.16015625 104.08984375 C140.08098481 118.05989079 140.04238566 132.02968544 140 146 C120.53 146 101.06 146 81 146 C85.44861215 138.21492873 85.44861215 138.21492873 87.1484375 135.52734375 C100.09041207 114.75116057 108.11037629 91.93524628 108.375 67.375 C108.38893799 66.54589111 108.40287598 65.71678223 108.41723633 64.86254883 C108.37066093 58.91239054 107.51733264 54.00566766 103.5703125 49.29296875 C97.17704263 44.40298125 91.97892351 43.02696055 84 44 C78.07081646 45.81169497 74.48884298 48.97196159 71 54 C68.42215623 58.87548713 68.48518084 64.04572966 68.125 69.4375 C66.01746899 95.28959882 54.29269646 117.63657318 35 135 C27.8372093 141 27.8372093 141 25 141 C24.99945523 140.41984886 24.99891047 139.83969772 24.99834919 139.24196625 C24.98335853 125.10222857 24.94081973 110.96279586 24.86790943 96.82323456 C24.83330883 89.98531046 24.80791043 83.14758693 24.80444336 76.30957031 C24.8010704 69.70877755 24.7716986 63.10842793 24.72656822 56.50776672 C24.71359261 53.99126625 24.70928572 51.47470545 24.71384621 48.95817566 C24.71875131 45.42924776 24.69265998 41.90179351 24.65942383 38.37304688 C24.67236229 36.8172139 24.67236229 36.8172139 24.68556213 35.22994995 C24.56543483 27.60613971 22.55214727 22.67900967 17.25 17.1875 C13.6652925 15.29557104 9.86247566 14.19552818 6 13 C4.31122883 12.44132797 2.6236655 11.87898778 0.9375 11.3125 C0.18339844 11.06113281 -0.57070312 10.80976563 -1.34765625 10.55078125 C-1.89292969 10.36902344 -2.43820313 10.18726563 -3 10 C-2.48792856 6.24480943 -1.7824918 3.33311475 0 0 Z " fill="#FDD962" transform="translate(250,251)"/>
<path d="M0 0 C0.61875 1.79630859 0.61875 1.79630859 1.25 3.62890625 C11.99233114 34.19279494 29.63212607 57.92365061 59.3125 72.375 C78.27009203 81.15272153 95.34480463 81.5480509 116 81 C116.25612061 81.88695557 116.51224121 82.77391113 116.77612305 83.68774414 C117.12199463 84.85426514 117.46786621 86.02078613 117.82421875 87.22265625 C118.16283936 88.37773682 118.50145996 89.53281738 118.8503418 90.72290039 C120.44674745 95.27345317 122.70414328 98.52942316 126 102 C126.52464844 102.55300781 127.04929688 103.10601562 127.58984375 103.67578125 C133.86272892 109.62395236 140.90442197 112.20491377 149.5 112.4375 C159.25690715 112.08249516 167.56186258 109.49587817 175 103 C179.28351585 98.27763843 181.37064494 93.26551762 183.16796875 87.19140625 C183.51496826 86.02939697 183.86196777 84.8673877 184.21948242 83.67016602 C184.60583862 82.34843384 184.60583862 82.34843384 185 81 C185.79470703 81.02094727 186.58941406 81.04189453 187.40820312 81.06347656 C209.03478765 81.73796067 209.03478765 81.73796067 230 77 C231.02625488 76.63793457 231.02625488 76.63793457 232.07324219 76.26855469 C248.2213902 70.48837564 260.78475431 61.90391259 273 50 C273.64324219 49.43023437 274.28648437 48.86046875 274.94921875 48.2734375 C288.59486584 35.86830379 295.75162175 17.21207278 301 0 C302.45880109 0.14107747 303.91703551 0.28802415 305.375 0.4375 C306.18710937 0.51871094 306.99921875 0.59992188 307.8359375 0.68359375 C310 1 310 1 312 2 C308.88762837 19.7405183 299.89504619 37.55048754 288 51 C286.9171875 52.26263672 286.9171875 52.26263672 285.8125 53.55078125 C269.44899012 72.27222744 248.82945216 84.69803804 224.7746582 90.83496094 C219.32640553 92.29341797 215.90716265 93.85852475 212 98 C204.10412591 116.4237062 208.37812883 137.95917176 208 158 C170.05 158 132.1 158 93 158 C92.67 155.36 92.34 152.72 92 150 C89.90366592 146.9054116 88.8362417 146.95906043 85 146 C85 138.74 85 131.48 85 124 C86.65 123.34 88.3 122.68 90 122 C92.49398079 118.25902881 92.29925803 116.15004478 92.3125 111.6875 C92.33763672 109.74423828 92.33763672 109.74423828 92.36328125 107.76171875 C91.82976802 102.23727529 90.23118518 99.27548569 86.39453125 95.30078125 C82.56529575 92.34787648 78.30707152 91.36550852 73.6875 90.1875 C43.77990717 81.85358774 17.7636563 62.53469318 2.02148438 35.61279297 C-11 12.41601743 -11 12.41601743 -11 1 C-3.375 0 -3.375 0 0 0 Z " fill="#F24B59" transform="translate(29,339)"/>
<path d="M0 0 C1.4790607 0.01178777 2.95815497 0.01993348 4.43725586 0.02441406 C9.87274775 0.06606318 15.30752142 0.17775436 20.7421875 0.28125 C32.9109375 0.44625 45.0796875 0.61125 57.6171875 0.78125 C57.6171875 28.50125 57.6171875 56.22125 57.6171875 84.78125 C41.7771875 84.78125 25.9371875 84.78125 9.6171875 84.78125 C9.6171875 73.23125 9.6171875 61.68125 9.6171875 49.78125 C12.5871875 49.12125 15.5571875 48.46125 18.6171875 47.78125 C20.15881925 44.6979865 19.91466285 42.17246901 19.6171875 38.78125 C17.37310996 36.45070711 15.96690174 35.82856498 12.74804688 35.39306641 C11.66330078 35.38968262 10.57855469 35.38629883 9.4609375 35.3828125 C8.27371094 35.37894531 7.08648437 35.37507813 5.86328125 35.37109375 C4.62707031 35.38269531 3.39085937 35.39429688 2.1171875 35.40625 C0.88097656 35.39464844 -0.35523438 35.38304687 -1.62890625 35.37109375 C-2.81613281 35.37496094 -4.00335938 35.37882812 -5.2265625 35.3828125 C-6.85368164 35.38788818 -6.85368164 35.38788818 -8.51367188 35.39306641 C-11.73296239 35.82862392 -13.13135508 36.4595182 -15.3828125 38.78125 C-15.80966451 42.19606611 -16.04846547 44.60656829 -14.3203125 47.65625 C-11.73330122 49.32021492 -11.73330122 49.32021492 -5.3828125 49.78125 C-5.3828125 61.33125 -5.3828125 72.88125 -5.3828125 84.78125 C-22.5428125 84.78125 -39.7028125 84.78125 -57.3828125 84.78125 C-57.3828125 65.31125 -57.3828125 45.84125 -57.3828125 25.78125 C-52.1028125 23.14125 -46.8228125 20.50125 -41.3828125 17.78125 C-32.9506898 12.94439158 -32.9506898 12.94439158 -25.46691895 6.81762695 C-17.72398945 -0.66969413 -10.08334737 -0.27008618 0 0 Z " fill="#7283B1" transform="translate(332.3828125,412.21875)"/>
<path d="M0 0 C23.43 0 46.86 0 71 0 C71 24.41176471 71 24.41176471 67 31 C66.401875 32.051875 65.80375 33.10375 65.1875 34.1875 C58.43334085 42.87141891 51.0381445 48.3034351 40 50 C30.38988895 50.99414942 21.90126498 48.34115037 14.1015625 42.71875 C6.91617317 36.84222341 3.65478583 30.83501306 1 22 C0.67 21.01 0.34 20.02 0 19 C0 12.73 0 6.46 0 0 Z " fill="#FBDCDC" transform="translate(144,322)"/>
<path d="M0 0 C23.43 0 46.86 0 71 0 C71 27.40316524 71 27.40316524 62.0546875 37.9609375 C54.32492192 45.63192159 46.6008874 49.27798463 35.625 49.3125 C24.41089822 49.12467761 17.42332615 46.05246437 9.30859375 38.40625 C-0.96487648 27.48907863 0 14.44900822 0 0 Z " fill="#FCDDDD" transform="translate(297,157)"/>
<path d="M0 0 C3.0625 0.3125 3.0625 0.3125 4.71264648 1.56445312 C6.35131837 3.68651691 6.52712896 4.9366281 6.72265625 7.59375 C6.79282959 8.43083496 6.86300293 9.26791992 6.93530273 10.13037109 C6.99790283 11.01547363 7.06050293 11.90057617 7.125 12.8125 C7.28084827 14.62786473 7.43968103 16.44297582 7.6015625 18.2578125 C7.67793945 19.13083008 7.75431641 20.00384766 7.83300781 20.90332031 C8.73038056 31.9383676 8.73038056 31.9383676 14.0625 41.3125 C15.14789063 41.34859375 16.23328125 41.3846875 17.3515625 41.421875 C21.0625 42.3125 21.0625 42.3125 22.37011719 43.71679688 C23.52504829 45.62134754 24.49814268 47.54307192 25.4375 49.5625 C25.94990234 50.56603516 25.94990234 50.56603516 26.47265625 51.58984375 C28.19833468 55.06166321 29.79072819 58.39326436 30.0625 62.3125 C29.4025 62.9725 28.7425 63.6325 28.0625 64.3125 C27.72923723 69.64470435 29.44415493 72.15670998 32.9375 76.125 C34.62278644 77.8766363 36.33225603 79.6052578 38.0625 81.3125 C38.90425781 82.15296875 39.74601562 82.9934375 40.61328125 83.859375 C47.48764114 90.41802355 54.97091547 95.42211168 63.0625 100.3125 C62.49750935 104.0282043 61.95222722 107.03697281 60.0625 110.3125 C45.39441621 108.34612645 28.85088407 90.25868244 20.0625 79.3125 C5.08264544 59.5891209 -4.95958022 35.68393344 -5.1875 10.75 C-5.2016394 9.55141357 -5.2016394 9.55141357 -5.21606445 8.32861328 C-5.17172623 0.55018364 -5.17172623 0.55018364 0 0 Z " fill="#F9DADA" transform="translate(172.9375,143.6875)"/>
<path d="M0 0 C3.5 -0.3125 3.5 -0.3125 7 0 C9.62566127 2.62566127 9.29848203 3.76946365 9.3125 7.4375 C8.69997879 40.11730806 -5.44240917 69.14327127 -28.38378906 91.93164062 C-36.35232296 99.57270052 -45.24166248 106.8818779 -56 110 C-56.67154933 108.71086513 -57.33708859 107.41859796 -58 106.125 C-58.37125 105.40570313 -58.7425 104.68640625 -59.125 103.9453125 C-60 102 -60 102 -60 100 C-58.26953125 98.84375 -58.26953125 98.84375 -55.8125 97.5 C-29.2017771 82.02426044 -12.81616819 57.42679827 -5 28 C-3.39371604 20.54974826 -2.75132024 13.06212244 -2.34375 5.4609375 C-2 3 -2 3 0 0 Z " fill="#F9DADA" transform="translate(488,144)"/>
<path d="M0 0 C7.4089619 4.70686991 14.57442067 11.26791441 17 20 C17 21.32 17 22.64 17 24 C-5.44 24 -27.88 24 -51 24 C-47.17460125 12.52380374 -41.85844454 4.53976905 -31.125 -1.375 C-22.21192901 -5.03517864 -8.44922764 -4.6995704 0 0 Z " fill="#F3A069" transform="translate(349,118)"/>
<path d="M0 0 C0.63164062 0.41507812 1.26328125 0.83015625 1.9140625 1.2578125 C2.60757813 1.69351562 3.30109375 2.12921875 4.015625 2.578125 C12.54805738 8.42619663 15.63159421 14.41040763 18.9140625 24.2578125 C-3.5259375 24.2578125 -25.9659375 24.2578125 -49.0859375 24.2578125 C-47.68745672 15.86692781 -44.42668779 9.80095853 -37.7734375 4.3828125 C-36.2344117 3.30676636 -34.672215 2.26289925 -33.0859375 1.2578125 C-32.43238281 0.82339844 -31.77882812 0.38898438 -31.10546875 -0.05859375 C-22.45058409 -4.86314287 -8.64302549 -4.77201794 0 0 Z " fill="#7282B0" transform="translate(195.0859375,282.7421875)"/>
<path d="M0 0 C3.96 0 7.92 0 12 0 C12.08636719 0.845625 12.17273438 1.69125 12.26171875 2.5625 C13.07623477 9.13840914 13.99485038 14.13755818 17.9765625 19.51171875 C19 21 19 21 19 23 C19.598125 23.28875 20.19625 23.5775 20.8125 23.875 C23 25 23 25 26 27 C27.24984828 32.42726912 25.94729229 37.5135967 23.2734375 42.2734375 C20.394003 46.17745605 16.64234615 48.07492554 12 49 C5.20498955 49.74905627 -0.21120119 49.34167392 -6.05078125 45.609375 C-10.05332912 42.30466614 -12.45414031 38.74283218 -13.47265625 33.625 C-13.62536327 31.24433675 -13.57970653 29.31418847 -13 27 C-10.8125 25.0625 -10.8125 25.0625 -8 23 C-3.28081135 15.95561345 -1.65856842 8.20554903 0 0 Z " fill="#FBDCDC" transform="translate(173,387)"/>
<path d="M0 0 C3.96 0 7.92 0 12 0 C12.2475 1.815 12.495 3.63 12.75 5.5 C14.14387461 13.77552131 16.60175439 19.40153509 23 25 C23.763125 25.4125 24.52625 25.825 25.3125 26.25 C27.34995868 28.36292011 27.41066334 29.24391655 27.625 32.125 C27.34416328 37.86343027 24.86435587 41.86257402 21 46 C16.12610678 49.95008339 10.8372965 50.69654654 4.6796875 50.44921875 C-2.37263897 49.26697743 -6.97325012 44.61304529 -11 39 C-12.27483302 35.17550095 -12.9721117 31.92952194 -12 28 C-10.15813302 25.54132176 -8.1098249 23.4195802 -5.9765625 21.2109375 C-0.56081902 15.153011 -0.48789367 7.80629877 0 0 Z " fill="#FADCDC" transform="translate(325,221)"/>
<path d="M0 0 C2.78011762 1.91258841 5.07109276 4.22937572 7.4296875 6.6328125 C8.10548859 7.30287323 8.78128967 7.97293396 9.47756958 8.66329956 C10.89835599 10.08001406 12.31163766 11.50429003 13.71777344 12.93554688 C15.86820475 15.11810324 18.04875818 17.2668071 20.234375 19.4140625 C21.613907 20.79755953 22.9915765 22.18291675 24.3671875 23.5703125 C25.01815399 24.20913361 25.66912048 24.84795471 26.33981323 25.50613403 C30.21626739 29.50519427 31.92236391 32.18800158 32 38 C31.21270916 40.64816011 30.47719891 41.62884529 28.3125 43.3125 C24.79710431 44.35761764 22.56696694 43.89413552 19 43 C16.21988238 41.08741159 13.92890724 38.77062428 11.5703125 36.3671875 C10.55661087 35.36209641 10.55661087 35.36209641 9.52243042 34.33670044 C8.10164401 32.91998594 6.68836234 31.49570997 5.28222656 30.06445312 C3.13179525 27.88189676 0.95124182 25.7331929 -1.234375 23.5859375 C-2.613907 22.20244047 -3.9915765 20.81708325 -5.3671875 19.4296875 C-6.34363724 18.47145584 -6.34363724 18.47145584 -7.33981323 17.49386597 C-11.21626739 13.49480573 -12.92236391 10.81199842 -13 5 C-12.21270916 2.35183989 -11.47719891 1.37115471 -9.3125 -0.3125 C-5.79710431 -1.35761764 -3.56696694 -0.89413552 0 0 Z " fill="#060606" transform="translate(30,216)"/>
<path d="M0 0 C2.47662326 1.7424607 4.45486359 3.83965978 6.5 6.0625 C7.06823486 6.65522705 7.63646973 7.2479541 8.22192383 7.85864258 C11.67159992 11.48231007 15.00576942 15.20077042 18.23828125 19.01953125 C21.31237071 22.47532584 24.65191579 25.66939215 27.9609375 28.8984375 C30.37595135 31.38747476 30.91730803 32.37981023 31.375 35.8125 C31 39 31 39 28.875 41.875 C26 44 26 44 23.1875 44.75 C18.202728 43.57711247 15.57684286 40.55424038 12 37 C10.87376881 35.89966702 9.74746065 34.79941281 8.62109375 33.69921875 C2.49796533 27.67685897 -3.49660899 21.60084141 -9 15 C-9.804375 14.13375 -10.60875 13.2675 -11.4375 12.375 C-13.44814771 9.31881548 -13.53520313 7.59350675 -13 4 C-9.82817612 -1.58845161 -5.88493321 -1.48977826 0 0 Z " fill="#050505" transform="translate(420,115)"/>
<path d="M0 0 C2.5 1.5625 2.5 1.5625 4 4 C4.73429833 7.47122848 4.78881498 9.72300232 2.8828125 12.80859375 C-1.22765509 17.72683979 -6.12122405 21.9841827 -10.87426758 26.27148438 C-13.77433637 28.89502052 -16.5766045 31.5577983 -19.26171875 34.40234375 C-19.78548096 34.95245117 -20.30924316 35.50255859 -20.84887695 36.06933594 C-21.83861405 37.11876442 -22.81594829 38.18008535 -23.77807617 39.25488281 C-26.35621804 41.97219749 -28.0021481 43.00054388 -31.671875 43.9296875 C-35 44 -35 44 -37.875 42.4375 C-40.45248068 39.48097805 -41 37.91032112 -41 34 C-38.97994185 29.99609578 -36.33992775 27.09425392 -33.17578125 23.9453125 C-32.47813911 23.2483577 -32.47813911 23.2483577 -31.7664032 22.537323 C-30.78454388 21.55847083 -29.80026922 20.58203607 -28.8137207 19.60791016 C-27.32907652 18.14137434 -25.85244461 16.66714426 -24.37695312 15.19140625 C-20.17533725 11.00344433 -15.9355587 6.85266568 -11.55859375 2.84765625 C-10.96747803 2.30633057 -10.3763623 1.76500488 -9.76733398 1.20727539 C-6.3955573 -1.09600348 -3.95002728 -0.72417167 0 0 Z " fill="#050505" transform="translate(308,44)"/>
<path d="M0 0 C3.63895162 2.31278439 6.77537161 5.14865495 10 8 C11.58853399 9.35354971 13.18462634 10.69780098 14.78149414 12.04150391 C15.88628604 12.97283224 16.98834238 13.90741525 18.08764648 14.84521484 C20.7614268 17.1261536 23.45068846 19.37684139 26.203125 21.5625 C27.18796875 22.34625 28.1728125 23.13 29.1875 23.9375 C30.06792969 24.62714844 30.94835937 25.31679688 31.85546875 26.02734375 C33.97326417 27.97540693 35.04456568 29.30741238 36 32 C35.81145593 35.07955322 35.51332877 37.21649819 33.8125 39.8125 C31.1702365 41.54363816 29.14770774 41.87409169 26 42 C21.88373543 39.9107363 18.51994507 37.01568408 15.0625 34 C9.75282536 29.42795127 4.32409636 25.0492144 -1.24194336 20.79296875 C-10.50924064 13.63688061 -10.50924064 13.63688061 -11.62890625 9.90234375 C-11.51717712 6.59647591 -11.19982141 4.31971425 -9.4375 1.5 C-5.81928843 -0.72659173 -4.21615344 -0.8160297 0 0 Z " fill="#050505" transform="translate(439,324)"/>
<path d="M0 0 C3.1811922 1.07677189 6.14023354 2.52193883 9.14453125 4.015625 C10.42102791 4.63398224 10.42102791 4.63398224 11.72331238 5.26483154 C13.51243076 6.13582037 15.29822457 7.01366794 17.08081055 7.89794922 C19.8122785 9.24989037 22.5562349 10.57344267 25.30273438 11.89453125 C27.04248056 12.74573436 28.78144172 13.59854423 30.51953125 14.453125 C31.75072441 15.04556 31.75072441 15.04556 33.00679016 15.64996338 C33.76485458 16.03005554 34.52291901 16.41014771 35.30395508 16.80175781 C36.30486931 17.29473358 36.30486931 17.29473358 37.32600403 17.79766846 C39.43011748 19.30892775 40.11626005 20.57899365 41 23 C40.87085587 26.68060775 40.77859391 29.0716765 38.375 31.9375 C33.78287694 33.99187084 29.87880333 33.3349384 25.27124023 31.57885742 C23.94343517 30.93514998 22.62275357 30.27659432 21.30859375 29.60546875 C20.60025894 29.25744705 19.89192413 28.90942535 19.16212463 28.55085754 C16.91395646 27.44256374 14.67584505 26.31547921 12.4375 25.1875 C10.93096425 24.44079355 9.42380753 23.69533856 7.91601562 22.95117188 C4.52539048 21.27428623 1.14006957 19.58747752 -2.23635864 17.88217163 C-3.94276614 17.02862832 -5.66251535 16.20192063 -7.38256836 15.3762207 C-10 14 -10 14 -11.4375 12.1875 C-12.23305859 9.09366104 -11.89222378 7.05905296 -11 4 C-7.89488453 -0.53824569 -5.27386814 -0.47392281 0 0 Z " fill="#050505" transform="translate(133,19)"/>
<path d="M0 0 C2.00603492 1.57397961 2.8773529 2.51048588 3.50170898 5.00244141 C3.64413682 10.57118628 2.58605869 13.46066341 -1.16552734 17.56616211 C-1.75027832 18.16307861 -2.3350293 18.75999512 -2.9375 19.375 C-4.13800472 20.67459451 -5.33721701 21.97538405 -6.53515625 23.27734375 C-7.12699707 23.90753418 -7.71883789 24.53772461 -8.32861328 25.18701172 C-10.63070545 27.68413945 -12.74915811 30.28848731 -14.875 32.9375 C-15.58269531 33.79859375 -16.29039062 34.6596875 -17.01953125 35.546875 C-18.31954145 37.15714404 -19.58927527 38.79243012 -20.82421875 40.453125 C-24.87325065 45.65772331 -24.87325065 45.65772331 -28.0703125 46.62890625 C-31.41586505 46.82025704 -33.67727302 46.20170436 -36.5 44.4375 C-38.72659173 40.81928843 -38.8160297 39.21615344 -38 35 C-35.68720515 31.36103192 -32.85165817 28.22439459 -30 25 C-28.62962986 23.39460861 -27.26834158 21.78182842 -25.90795898 20.16796875 C-24.96924503 19.05590117 -24.02734224 17.94651752 -23.08227539 16.83984375 C-19.52928852 12.67397437 -16.1488684 8.39563608 -12.8515625 4.0234375 C-8.86201785 -0.33644463 -5.73180339 -1.7444619 0 0 Z " fill="#050505" transform="translate(509,466)"/>
<path d="M0 0 C2.4375 1.5 2.4375 1.5 4 4 C4.77387177 10.59863874 4.77387177 10.59863874 3.01391602 13.78564453 C1.61160362 15.55788575 0.13019969 17.18484778 -1.4375 18.8125 C-2.54672902 20.03019788 -3.65479107 21.24895974 -4.76171875 22.46875 C-5.31263184 23.06429688 -5.86354492 23.65984375 -6.43115234 24.2734375 C-8.64059849 26.70499728 -10.69496146 29.2500001 -12.75 31.8125 C-13.46414062 32.68261719 -14.17828125 33.55273438 -14.9140625 34.44921875 C-16.32005732 36.16853451 -17.71045553 37.9007086 -19.0859375 39.64453125 C-22.16625661 43.39166273 -24.05020608 45.66193776 -28.6875 47.3125 C-32 47 -32 47 -34.9375 45.5625 C-37.16980961 42.78902443 -37.97568623 40.91241718 -37.73046875 37.3203125 C-36.23959027 32.58458085 -32.65142532 29.13874093 -29.36914062 25.52246094 C-26.99464693 22.8820646 -24.72458001 20.15350726 -22.4375 17.4375 C-21.97569336 16.89488525 -21.51388672 16.35227051 -21.03808594 15.79321289 C-17.43535508 11.55586672 -13.9681151 7.22293423 -10.55859375 2.828125 C-7.52087046 -0.73491886 -4.48810336 -0.38690546 0 0 Z " fill="#050505" transform="translate(37,441)"/>
<path d="M0 0 C2.01158602 2.05347625 2.93344611 3.30137917 3.20825195 6.18603516 C2.28526774 14.28308765 0.59925264 22.15922668 -1.27368164 30.08154297 C-1.81563697 32.38835237 -2.33495155 34.69955315 -2.85351562 37.01171875 C-3.19916125 38.49510912 -3.54611982 39.97819431 -3.89453125 41.4609375 C-4.04573929 42.14433197 -4.19694733 42.82772644 -4.35273743 43.53182983 C-5.40962544 47.88271435 -6.89032287 50.77378139 -10 54 C-12.75417262 54.86605819 -15.19316882 54.60392884 -18 54 C-20.5 52.5 -20.5 52.5 -22 50 C-22.34851369 44.03681338 -21.53065648 38.82752095 -20.13671875 33.046875 C-19.94406937 32.22423157 -19.75141998 31.40158813 -19.55293274 30.55401611 C-19.14624569 28.82858025 -18.73506252 27.10419846 -18.31958008 25.38085938 C-17.68667987 22.74658643 -17.07396519 20.10816071 -16.46289062 17.46875 C-16.06370135 15.78617286 -15.66335092 14.10387069 -15.26171875 12.421875 C-15.08033859 11.63641296 -14.89895844 10.85095093 -14.71208191 10.04168701 C-13.75106911 6.11847239 -12.91086058 2.8920156 -10 0 C-6.20519658 -1.26493447 -3.87641726 -0.89988258 0 0 Z " fill="#050505" transform="translate(99,124)"/>
<path d="M0 0 C2.94599124 2.23181154 2.96904193 3.78716329 3.5 7.4375 C2.86018198 11.99620341 1.43227377 13.01588471 -2 16 C-5.01098633 17.78930664 -5.01098633 17.78930664 -8.33203125 19.41015625 C-8.92747238 19.70433945 -9.52291351 19.99852264 -10.13639832 20.30162048 C-12.02390002 21.23151546 -13.91786575 22.14723996 -15.8125 23.0625 C-17.07142506 23.6793976 -18.32989293 24.29722912 -19.58789062 24.91601562 C-21.99184659 26.09756213 -24.39953135 27.27000857 -26.81030273 28.43774414 C-29.44830565 29.72979012 -32.04925979 31.07019138 -34.6484375 32.4375 C-38.68727268 34.32040684 -40.75822692 34.24758032 -45 33 C-46.9375 31.9375 -46.9375 31.9375 -48 30 C-48.8021148 24.47432024 -48.8021148 24.47432024 -48 22 C-43.00033583 16.81327357 -36.60706621 14.09395607 -30.1875 11 C-28.09670783 9.98111056 -26.00684883 8.9603038 -23.91796875 7.9375 C-22.91443359 7.44822021 -21.91089844 6.95894043 -20.87695312 6.45483398 C-17.50591892 4.75015027 -14.25037991 2.88844293 -11.01635742 0.93774414 C-7.43336479 -0.72859255 -3.82927632 -0.84037948 0 0 Z " fill="#050505" transform="translate(48,0)"/>
<path d="M0 0 C2.37986492 0.40859423 4.76305958 0.79076167 7.14746094 1.171875 C8.67637617 1.4307053 10.20503304 1.69106747 11.73339844 1.953125 C12.43866669 2.06372253 13.14393494 2.17432007 13.87057495 2.28826904 C18.39669619 3.10399515 21.20725092 4.42965685 24.49121094 7.65625 C25.35726912 10.41042262 25.09513978 12.84941882 24.49121094 15.65625 C22.99121094 18.15625 22.99121094 18.15625 20.49121094 19.65625 C14.8581808 19.91891249 9.59290302 19.37835335 4.04589844 18.44921875 C2.88563644 18.26012688 2.88563644 18.26012688 1.70193481 18.06721497 C0.07955481 17.80062041 -1.54228104 17.53069465 -3.16357422 17.25756836 C-5.63231342 16.8439972 -8.10344382 16.44785163 -10.57519531 16.05273438 C-12.16000538 15.79011426 -13.74464728 15.52647691 -15.32910156 15.26171875 C-16.06049347 15.14595993 -16.79188538 15.03020111 -17.54544067 14.91093445 C-21.98514039 14.14443776 -25.63492208 12.97130257 -29.50878906 10.65625 C-31.05465782 7.56451248 -30.80238428 5.06195448 -30.50878906 1.65625 C-25.8244985 -7.04314677 -8.0464857 -1.39414329 0 0 Z " fill="#050505" transform="translate(487.5087890625,2.34375)"/>
<path d="M0 0 C2.3125 1.0625 2.3125 1.0625 4 3 C5.10373378 6.97344161 5.41543583 9.08999772 3.6875 12.875 C2 15 2 15 0 16 C-3.20371381 16.27858381 -5.37084049 16.28907329 -8.3125 14.9375 C-10.82814308 12.04916906 -10.93488709 9.77654862 -11 6 C-8.42104772 0.35086644 -6.08014874 -0.4864119 0 0 Z " fill="#050505" transform="translate(140,230)"/>
<path d="M0 0 C3.9375 0.5 3.9375 0.5 5.875 1.625 C7.90361503 5.20490887 8.24278416 8.27886337 7.25 12.25 C5.67250827 14.95427154 4.95811646 15.68361717 1.9375 16.5 C-4.15999492 16.28605281 -4.15999492 16.28605281 -7 13.8125 C-8.40839562 10.74716836 -8.54022045 8.84404315 -8.0625 5.5 C-5.99835512 1.54372232 -4.38390711 0.17761686 0 0 Z " fill="#050505" transform="translate(481.0625,400.5)"/>
<path d="M0 0 C2.73883355 1.59029045 2.94967699 2.83465297 3.875 5.875 C4.02797399 9.6993498 3.48896378 11.10959044 1 14 C-2.34708903 15.67354451 -4.09775482 16.2255613 -7.75 15.3125 C-10 14 -10 14 -12 11 C-12.33275864 7.09008592 -12.20387919 4.30581879 -10 1 C-6.81333914 -0.59333043 -3.46800147 -0.38375426 0 0 Z " fill="#050505" transform="translate(485,295)"/>
<path d="M0 0 C1.9375 1.0625 1.9375 1.0625 3 3 C3.75471698 9.79245283 3.75471698 9.79245283 1.4375 13.5 C-1.94888329 15.58392818 -4.09385318 15.55802097 -8 15 C-10.4375 13.5 -10.4375 13.5 -12 11 C-12.61014545 8.1910285 -12.65360928 5.80363979 -12 3 C-8.3655827 -1.51548816 -5.40521016 -1.50144727 0 0 Z " fill="#050505" transform="translate(489,66)"/>
<path d="M0 0 C2.81972931 2.36493426 2.97850831 3.8280665 3.4375 7.5 C3 11 3 11 1.4375 13.4375 C-1.94217804 15.60396028 -4.05983987 15.56288002 -8 15 C-10.4375 13.5 -10.4375 13.5 -12 11 C-12.6807995 6.71699557 -12.45945333 3.68917999 -10 0 C-6.20519658 -1.26493447 -3.87641726 -0.89988258 0 0 Z " fill="#050505" transform="translate(371,66)"/>
<path d="M0 0 C1.94140625 0.34375 1.94140625 0.34375 4.44140625 1.90625 C6.50992243 5.2675888 6.42645636 7.46334911 5.94140625 11.34375 C4.81640625 13.71875 4.81640625 13.71875 2.94140625 15.34375 C-0.74971301 16.54737584 -2.35458326 16.68793291 -5.87109375 14.96875 C-8.05859375 13.34375 -8.05859375 13.34375 -9.05859375 12.34375 C-9.26171875 10.3828125 -9.26171875 10.3828125 -9.30859375 7.96875 C-9.334375 7.17726562 -9.36015625 6.38578125 -9.38671875 5.5703125 C-9.05859375 3.34375 -9.05859375 3.34375 -7.7890625 1.58203125 C-5.32331972 -0.18239417 -2.95993875 -0.13082602 0 0 Z " fill="#050505" transform="translate(9.05859375,128.65625)"/>
<path d="M0 0 C2.75806231 2.39032067 2.98155872 3.85246979 3.4375 7.5 C3 11 3 11 1.5 13.4375 C-2.27828899 15.79893062 -4.57790439 15.56153595 -9 15 C-11 13.5 -11 13.5 -12 11 C-12.50396257 7.42186574 -12.79396117 4.17203792 -10.6875 1.0625 C-6.90426416 -1.31953738 -4.20020464 -1.13755542 0 0 Z " fill="#050505" transform="translate(214,88)"/>
<path d="M0 0 C2.20066025 1.59186082 2.90197996 2.46953859 3.3984375 5.15625 C3.39070313 5.9296875 3.38296875 6.703125 3.375 7.5 C3.38273437 8.2734375 3.39046875 9.046875 3.3984375 9.84375 C2.90835499 12.49596124 2.10150149 13.35820196 0 15 C-3.01523464 16.03152764 -4.60370446 16.1105941 -7.6875 15.25 C-10 14 -10 14 -12 11 C-12.41857482 7.16306413 -12.54644269 4.88796936 -10.5 1.5625 C-6.75107996 -0.78057502 -4.38964238 -0.48773804 0 0 Z " fill="#050505" transform="translate(76,58)"/>
<path d="M0 0 C1.94140625 0.34375 1.94140625 0.34375 4.44140625 1.90625 C6.50992243 5.2675888 6.42645636 7.46334911 5.94140625 11.34375 C4.81640625 13.71875 4.81640625 13.71875 2.94140625 15.34375 C-0.74971301 16.54737584 -2.35458326 16.68793291 -5.87109375 14.96875 C-8.05859375 13.34375 -8.05859375 13.34375 -9.05859375 12.34375 C-9.26171875 10.3828125 -9.26171875 10.3828125 -9.30859375 7.96875 C-9.334375 7.17726563 -9.36015625 6.38578125 -9.38671875 5.5703125 C-9.05859375 3.34375 -9.05859375 3.34375 -7.7890625 1.58203125 C-5.32331972 -0.18239417 -2.95993875 -0.13082602 0 0 Z " fill="#050505" transform="translate(422.05859375,27.65625)"/>
<path d="M0 0 C2.68414471 0.53974649 3.57955027 1.20737306 5.15625 3.43359375 C5.5546875 5.58984375 5.5546875 5.58984375 5.53125 7.93359375 C5.53898437 8.70703125 5.54671875 9.48046875 5.5546875 10.27734375 C5.05533396 12.9797276 4.38861381 13.85109585 2.15625 15.43359375 C-0.89470763 16.04710153 -3.77785533 15.93601224 -6.84375 15.43359375 C-8.90625 13.87109375 -8.90625 13.87109375 -9.84375 11.43359375 C-10.2252835 7.87261443 -10.19487019 5.34650623 -8.90625 1.99609375 C-5.99549319 -0.20902505 -3.57069231 -0.00595115 0 0 Z " fill="#050505" transform="translate(73.84375,496.56640625)"/>
<path d="M0 0 C2.68414471 0.53974649 3.57955027 1.20737306 5.15625 3.43359375 C5.5546875 5.58984375 5.5546875 5.58984375 5.53125 7.93359375 C5.53898438 8.70703125 5.54671875 9.48046875 5.5546875 10.27734375 C5.05533396 12.9797276 4.38861381 13.85109585 2.15625 15.43359375 C-0.89470763 16.04710153 -3.77785533 15.93601224 -6.84375 15.43359375 C-8.90625 13.87109375 -8.90625 13.87109375 -9.84375 11.43359375 C-10.2252835 7.87261443 -10.19487019 5.34650623 -8.90625 1.99609375 C-5.99549319 -0.20902505 -3.57069231 -0.00595115 0 0 Z " fill="#050505" transform="translate(242.84375,157.56640625)"/>
<path d="M0 0 C1.94140625 0.34375 1.94140625 0.34375 4.44140625 1.90625 C6.50992243 5.2675888 6.42645636 7.46334911 5.94140625 11.34375 C4.49047556 14.24561138 3.60826448 15.09806539 0.56640625 16.21875 C-2.53375018 16.3663765 -4.31238072 15.7539675 -7.05859375 14.34375 C-9.47346318 11.92888057 -9.35478625 11.21667211 -9.37109375 7.90625 C-9.38785156 7.12378906 -9.40460938 6.34132813 -9.421875 5.53515625 C-8.54155421 0.22483406 -4.91646518 -0.21730233 0 0 Z " fill="#050505" transform="translate(248.05859375,-0.34375)"/>
<path d="M0 0 C1.43382581 3.58835772 1.39922632 6.80232103 0.1875 10.4375 C-1 12 -1 12 -3 13 C-10.21144674 13.45786963 -10.21144674 13.45786963 -12.9375 11.875 C-14.46849826 9.17323836 -14.8757742 7.10564495 -15 4 C-13.70535329 0.83530804 -12.59085735 -0.6060951 -9.75 -2.5 C-5.57290859 -3.25947116 -3.51380893 -2.29749046 0 0 Z " fill="#050505" transform="translate(95,320)"/>
<path d="M0 0 C1.94140625 0.34375 1.94140625 0.34375 4.44140625 1.90625 C6.52533443 5.29263329 6.49942722 7.43760318 5.94140625 11.34375 C4.44140625 13.78125 4.44140625 13.78125 1.94140625 15.34375 C-0.96673107 15.8586717 -3.04026483 15.67911988 -6.05859375 15.34375 C-8.259254 13.75188918 -8.96057371 12.87421141 -9.45703125 10.1875 C-9.44929688 9.4140625 -9.4415625 8.640625 -9.43359375 7.84375 C-9.44132812 7.0703125 -9.4490625 6.296875 -9.45703125 5.5 C-8.48365705 0.23232787 -4.91668825 -0.21731219 0 0 Z " fill="#050505" transform="translate(449.05859375,445.65625)"/>
<path d="M0 0 C3.0625 0.3125 3.0625 0.3125 4.7421875 1.4140625 C6.71425612 4.24964045 6.35109516 6.59646309 6.25 10 C6.22292969 11.17949219 6.19585937 12.35898437 6.16796875 13.57421875 C6.13316406 14.47785156 6.09835938 15.38148438 6.0625 16.3125 C2.4325 16.6425 -1.1975 16.9725 -4.9375 17.3125 C-4.99133848 14.85387599 -5.03109038 12.3964245 -5.0625 9.9375 C-5.07925781 9.23882812 -5.09601562 8.54015625 -5.11328125 7.8203125 C-5.13094267 5.98352514 -5.04053261 4.14648037 -4.9375 2.3125 C-2.9375 0.3125 -2.9375 0.3125 0 0 Z " fill="#F3D5D5" transform="translate(19.9375,308.6875)"/>
<path d="M0 0 C2 2 2 2 2.1953125 5.4765625 C2.18201493 6.85950968 2.15816232 8.24238654 2.125 9.625 C2.11597656 10.33140625 2.10695313 11.0378125 2.09765625 11.765625 C2.07407603 13.51056098 2.03820461 15.25532295 2 17 C-1.63 16.67 -5.26 16.34 -9 16 C-9.0810206 13.89646505 -9.13919907 11.79204048 -9.1875 9.6875 C-9.22230469 8.51574219 -9.25710938 7.34398437 -9.29296875 6.13671875 C-9 3 -9 3 -7.6796875 1.1015625 C-5.09770424 -0.59173815 -3.00157241 -0.31931621 0 0 Z " fill="#F4D6D6" transform="translate(342,309)"/>
</svg>
