<?xml version="1.0" encoding="UTF-8"?>
<svg version="1.1" xmlns="http://www.w3.org/2000/svg" width="512" height="512">
<path d="M0 0 C1.23947081 -0.00453111 2.47894162 -0.00906223 3.75597215 -0.01373065 C7.18925787 -0.02419316 10.62233393 -0.02570182 14.05562067 -0.02334189 C17.7612778 -0.02293338 21.4669038 -0.03397624 25.17254639 -0.04345703 C32.4302203 -0.06006084 39.68786172 -0.06556631 46.94555303 -0.06668179 C52.846359 -0.06763262 58.74715427 -0.07174466 64.64795685 -0.07808304 C81.3844654 -0.09569426 98.12094831 -0.10492217 114.85746619 -0.10342209 C116.21050669 -0.10330222 116.21050669 -0.10330222 117.59088135 -0.10317993 C118.94557751 -0.10305729 118.94557751 -0.10305729 120.32764128 -0.10293217 C134.96076432 -0.10211945 149.59378439 -0.12125394 164.22687766 -0.14945666 C179.25854819 -0.17819853 194.29016852 -0.19199622 209.32186723 -0.19026911 C217.75838205 -0.18960563 226.19478894 -0.19507954 234.63127899 -0.21662521 C241.81504406 -0.23485423 248.99865227 -0.23917032 256.18243048 -0.22560637 C259.84550285 -0.21908515 263.50827446 -0.21892846 267.17131805 -0.23631287 C271.14820471 -0.25499206 275.12465434 -0.24246673 279.1015625 -0.22705078 C280.25118965 -0.23733791 281.4008168 -0.24762503 282.58528113 -0.25822389 C292.07757955 -0.17702102 300.20534042 1.96290758 307.27349854 8.56430054 C313.43104895 15.41300457 316.11113171 22.68656539 316.0789032 31.88250732 C316.08413988 32.62927943 316.08937656 33.37605153 316.09477192 34.1454531 C316.10972295 36.63717454 316.11047598 39.12868974 316.11114502 41.62045288 C316.11876971 43.41129399 316.12719774 45.20213183 316.1363678 46.9929657 C316.15828688 51.85043701 316.16710802 56.70784537 316.17219424 61.56536055 C316.17584034 64.60174395 316.18208167 67.63811093 316.18919563 70.67448807 C316.21367942 81.27188083 316.22674008 91.86922469 316.23028564 102.46664429 C316.23392189 112.33809655 316.26382641 122.20923809 316.30569023 132.08059537 C316.34039715 140.56231067 316.35583414 149.04392297 316.35653168 157.52570879 C316.35732424 162.58864355 316.36605366 167.65126153 316.39452934 172.71412277 C316.42071739 177.47654863 316.42291107 182.23839518 316.4068737 187.00086021 C316.40505991 188.74552995 316.41174371 190.49023307 316.42769241 192.23483086 C316.51749918 202.69909885 316.11978722 209.80474689 308.55474854 217.57992554 C302.7526074 221.14033032 296.62602683 223.06324134 289.80474854 222.26742554 C282.34153429 220.39922685 275.60095198 217.82770566 268.80474854 214.26742554 C268.79072998 215.23567261 268.79072998 215.23567261 268.77642822 216.22348022 C268.72265752 219.15556498 268.63902513 222.08606562 268.55474854 225.01742554 C268.54056885 226.03320679 268.52638916 227.04898804 268.51177979 228.09555054 C268.47955322 229.07523804 268.44732666 230.05492554 268.41412354 231.06430054 C268.38270264 232.41539917 268.38270264 232.41539917 268.35064697 233.79379272 C267.59231838 237.23001153 266.66931639 238.18541815 263.80474854 240.26742554 C260.52078336 240.87473896 257.26712345 240.80663247 253.93560791 240.77536011 C252.41563328 240.78472005 252.41563328 240.78472005 250.86495209 240.79426908 C247.45923299 240.81026235 244.05422332 240.79756967 240.64849854 240.78500366 C238.21107565 240.79042194 235.77365605 240.79754294 233.33624268 240.8062439 C227.39705609 240.82261612 221.4580547 240.82018356 215.51887321 240.80859333 C210.69251724 240.79956424 205.86621795 240.79833272 201.03985596 240.8026886 C200.35326322 240.80330153 199.66667048 240.80391446 198.95927191 240.80454597 C197.56452495 240.80582485 196.16977801 240.80712171 194.77503109 240.80843633 C181.69271985 240.81984585 168.61052067 240.80672264 155.52822781 240.78523487 C144.30003275 240.76736351 133.0720031 240.77046751 121.84381104 240.78890991 C108.80871099 240.81031011 95.77370921 240.81874718 82.73859406 240.80646086 C81.34894309 240.80518664 79.95929211 240.80392916 78.56964111 240.8026886 C77.88588457 240.8020715 77.20212802 240.80145439 76.49765158 240.80081859 C71.67640928 240.79736312 66.85522924 240.80319824 62.03399658 240.81260681 C55.54642993 240.82498876 49.05910252 240.81618868 42.57156372 240.79302979 C40.18666098 240.78772825 37.801732 240.78928097 35.4168396 240.79808044 C32.16883026 240.80896211 28.92183345 240.79536082 25.67388916 240.77536011 C24.72331383 240.78428299 23.77273849 240.79320588 22.79335785 240.80239916 C16.43389721 240.72609708 16.43389721 240.72609708 13.2220459 238.38454437 C11.52218295 235.84533703 11.2695493 234.32425686 11.19537354 231.28305054 C11.16314697 230.34848022 11.13092041 229.41390991 11.09771729 228.45101929 C11.0835376 227.48293335 11.06935791 226.51484741 11.05474854 225.51742554 C11.0251001 224.53387085 10.99545166 223.55031616 10.96490479 222.53695679 C10.89432443 220.11369778 10.84157152 217.691394 10.80474854 215.26742554 C9.35842041 216.00799194 9.35842041 216.00799194 7.88287354 216.76351929 C6.60694002 217.41086791 5.33089233 218.05799153 4.05474854 218.70492554 C3.42052979 219.03041382 2.78631104 219.3559021 2.13287354 219.69125366 C-5.21779999 223.40487518 -12.61489773 224.84466837 -20.73822021 222.54867554 C-27.04964052 219.926846 -31.40121275 215.95848361 -35.19525146 210.26742554 C-36.35760023 206.78037923 -36.34338261 203.65371059 -36.34242249 200.02656555 C-36.34609917 199.28376785 -36.34977586 198.54097016 -36.35356396 197.77566344 C-36.36460266 195.27933955 -36.368445 192.78305729 -36.37225342 190.28671265 C-36.37851807 188.49956124 -36.38516488 186.71241113 -36.39216614 184.92526245 C-36.41321371 179.04844063 -36.42357113 173.17161854 -36.43353271 167.29476929 C-36.43758041 165.27080331 -36.44169734 163.24683747 -36.4458828 161.22287178 C-36.46493825 151.7113285 -36.47916693 142.19979298 -36.48749477 132.68823427 C-36.4972603 121.71606485 -36.52356052 110.74409753 -36.56399566 99.7719993 C-36.59418672 91.28777457 -36.6089666 82.80360767 -36.61227578 74.31933028 C-36.61462342 69.2540904 -36.62354623 64.18906635 -36.64873695 59.1238842 C-36.67207409 54.35418003 -36.67622824 49.5848329 -36.66597557 44.81508636 C-36.66548142 43.06964745 -36.67176598 41.32419063 -36.68553162 39.57880592 C-36.77208354 27.94862316 -36.23781562 17.72777201 -27.89837646 8.79867554 C-19.43802224 1.19211852 -11.05138856 -0.02954417 0 0 Z " fill="#000000" transform="translate(116.19525146484375,255.73257446289063)"/>
<path d="M0 0 C1.27866943 -0.0112793 2.55733887 -0.02255859 3.87475586 -0.03417969 C5.28955305 -0.02640266 6.704348 -0.01821 8.11914062 -0.00964355 C9.61076542 -0.01506435 11.10238485 -0.02218677 12.59399414 -0.03088379 C16.6436169 -0.04912547 20.69283223 -0.04204633 24.74246216 -0.02936745 C28.97936099 -0.01924407 33.21622481 -0.02863128 37.453125 -0.03491211 C44.56842312 -0.04219046 51.68355521 -0.03259594 58.79882812 -0.0135498 C67.02641862 0.00821938 75.25361265 0.00116814 83.48119354 -0.02085543 C90.54373317 -0.03900413 97.6061534 -0.04157037 104.6687088 -0.03110075 C108.88752237 -0.02486287 113.10614956 -0.02403817 117.32495117 -0.0372467 C121.29119435 -0.04879699 125.25692611 -0.04079505 129.22311401 -0.01766968 C130.6791804 -0.01237811 132.1352898 -0.01390409 133.59133911 -0.02272034 C135.57780425 -0.03363977 137.56436338 -0.01752243 139.55078125 0 C141.21880798 0.00226215 141.21880798 0.00226215 142.92053223 0.00457001 C146.46049613 0.6287314 147.64240516 1.65560798 149.77539062 4.50793457 C150.17821188 7.35648675 150.33987404 9.82417033 150.32128906 12.67297363 C150.33162674 13.49285767 150.34196442 14.3127417 150.35261536 15.1574707 C150.38207452 17.86303339 150.38354316 20.56784901 150.38476562 23.27355957 C150.3997452 25.15115794 150.41647187 27.02874311 150.43487549 28.90631104 C150.47858634 33.84481405 150.49855637 38.78313932 150.51361084 43.72180176 C150.53316845 48.76259895 150.57513997 53.8032038 150.61523438 58.84387207 C150.69057694 68.73183363 150.74084392 78.61975222 150.77539062 88.50793457 C151.5143457 88.75970459 152.25330078 89.01147461 153.01464844 89.27087402 C153.99272461 89.61336182 154.97080078 89.95584961 155.97851562 90.30871582 C156.9443457 90.64298584 157.91017578 90.97725586 158.90527344 91.32165527 C167.82102449 95.00672114 174.9113206 102.56216002 179.06054688 111.17590332 C183.39313954 122.18596854 183.88035407 132.95676509 179.80664062 144.17590332 C175.17271359 154.27348081 167.89258963 161.85371784 157.77539062 166.50793457 C155.44685565 167.19117228 153.11387363 167.85956266 150.77539062 168.50793457 C150.771745 169.15051208 150.76809937 169.7930896 150.76434326 170.45513916 C150.72255656 177.13879661 150.65323774 183.8217649 150.56787109 190.50500488 C150.53963264 192.99972646 150.51843251 195.49453799 150.50439453 197.98937988 C150.48300563 201.57415923 150.43637354 205.15785375 150.38476562 208.74230957 C150.38353699 209.85910095 150.38230835 210.97589233 150.38104248 212.12652588 C150.36132385 213.16730286 150.34160522 214.20807983 150.32128906 215.28039551 C150.31240662 216.19528748 150.30352417 217.11017944 150.29437256 218.05279541 C149.59612117 221.35600159 148.40197391 222.41444945 145.77539062 224.50793457 C142.92053223 225.01129913 142.92053223 225.01129913 139.55078125 225.01586914 C138.27211182 225.02714844 136.99344238 225.03842773 135.67602539 225.05004883 C134.2612282 225.0422718 132.84643325 225.03407914 131.43164062 225.0255127 C129.94001583 225.03093349 128.4483964 225.03805591 126.95678711 225.04675293 C122.90716435 225.06499461 118.85794902 225.05791547 114.80831909 225.04523659 C110.57142026 225.03511321 106.33455644 225.04450042 102.09765625 225.05078125 C94.98235813 225.0580596 87.86722604 225.04846509 80.75195312 225.02941895 C72.52436263 225.00764976 64.2971686 225.014701 56.06958771 225.03672457 C49.00704808 225.05487327 41.94462785 225.05743951 34.88207245 225.04696989 C30.66325888 225.04073201 26.44463169 225.03990731 22.22583008 225.05311584 C18.2595869 225.06466613 14.29385514 225.05666419 10.32766724 225.03353882 C8.87160085 225.02824725 7.41549145 225.02977323 5.95944214 225.03858948 C3.972977 225.04950891 1.98641787 225.03339157 0 225.01586914 C-1.11201782 225.01436104 -2.22403564 225.01285294 -3.36975098 225.01129913 C-6.88477238 224.39153557 -8.06458756 223.29661881 -10.22460938 220.50793457 C-10.74359131 218.05279541 -10.74359131 218.05279541 -10.77050781 215.28039551 C-10.79022644 214.23961853 -10.80994507 213.19884155 -10.83026123 212.12652588 C-10.83148987 211.0097345 -10.83271851 209.89294312 -10.83398438 208.74230957 C-10.85052063 207.59377502 -10.86705688 206.44524048 -10.88409424 205.26190186 C-10.93267552 201.59385891 -10.95396861 197.92623087 -10.97460938 194.25793457 C-11.00276043 191.77093442 -11.03268663 189.28395367 -11.06445312 186.79699707 C-11.13843734 180.70071848 -11.19002051 174.60455706 -11.22460938 168.50793457 C-11.96356445 168.25616455 -12.70251953 168.00439453 -13.46386719 167.74499512 C-14.44194336 167.40250732 -15.42001953 167.06001953 -16.42773438 166.70715332 C-17.39356445 166.3728833 -18.35939453 166.03861328 -19.35449219 165.69421387 C-28.27024324 162.009148 -35.36053935 154.45370912 -39.50976562 145.83996582 C-43.84235829 134.8299006 -44.32957282 124.05910405 -40.25585938 112.83996582 C-35.62193234 102.74238833 -28.34180838 95.16215131 -18.22460938 90.50793457 C-15.8960744 89.82469686 -13.56309238 89.15630648 -11.22460938 88.50793457 C-11.22096375 87.46445862 -11.21731812 86.42098267 -11.21356201 85.34588623 C-11.17663567 75.51656092 -11.11888899 65.68754959 -11.04070663 55.85846329 C-11.00118167 50.80508364 -10.96901785 45.75187956 -10.95361328 40.69836426 C-10.93847971 35.82225453 -10.90409309 30.94662731 -10.85630035 26.07073212 C-10.84145243 24.20963482 -10.83356641 22.34846865 -10.83272552 20.48731232 C-10.83036433 17.88200822 -10.80335442 15.2780468 -10.77050781 12.67297363 C-10.77805336 11.51635223 -10.77805336 11.51635223 -10.78575134 10.33636475 C-10.72177342 7.06091724 -10.57112307 4.97130867 -8.58121109 2.31030655 C-5.5383326 -0.01694243 -3.80891533 0.0051656 0 0 Z " fill="#000000" transform="translate(186.224609375,15.4920654296875)"/>
<path d="M0 0 C42.24 0 84.48 0 128 0 C128 47.52 128 95.04 128 144 C85.76 144 43.52 144 0 144 C0 96.48 0 48.96 0 0 Z " fill="#FED681" transform="translate(192,80)"/>
<path d="M0 0 C0.64705902 0.26051147 1.29411804 0.52102295 1.96078491 0.78942871 C4.09508739 1.65083591 6.2247009 2.52325749 8.35449219 3.39575195 C9.8746119 4.01167831 11.3950245 4.62688227 12.91571045 5.2414093 C16.93608506 6.86821895 20.95263699 8.50426187 24.96838379 10.14245605 C28.9179528 11.75212687 32.87061977 13.35414375 36.82324219 14.95629883 C41.52289199 16.8616316 46.22233219 18.76746514 50.92028809 20.67697144 C67.30375622 27.33409597 83.72525596 33.89547766 100.15136719 40.4465332 C100.15136719 46.7165332 100.15136719 52.9865332 100.15136719 59.4465332 C26.23136719 59.4465332 -47.68863281 59.4465332 -123.84863281 59.4465332 C-123.84863281 53.1765332 -123.84863281 46.9065332 -123.84863281 40.4465332 C-109.94979497 34.85626136 -96.050581 29.26692574 -82.15086651 23.67883396 C-75.69714523 21.0842218 -69.24355776 18.48927776 -62.7902832 15.89355469 C-56.56609178 13.3899776 -50.34153041 10.88732244 -44.11673927 8.38523674 C-41.73829609 7.42903299 -39.35997845 6.47251692 -36.98178673 5.51568794 C-33.65867811 4.17874725 -30.33513059 2.84290347 -27.01147461 1.50732422 C-26.02173141 1.10883774 -25.03198822 0.71035126 -24.01225281 0.29978943 C-23.10781433 -0.06339386 -22.20337585 -0.42657715 -21.27153015 -0.80076599 C-20.48524074 -1.11694098 -19.69895132 -1.43311598 -18.88883495 -1.75887203 C-11.97554328 -4.45138238 -6.71436282 -2.72952379 0 0 Z " fill="#7DC3BA" transform="translate(267.8486328125,420.553466796875)"/>
<path d="M0 0 C21.12 0 42.24 0 64 0 C64 40.92 64 81.84 64 124 C53.87543965 121.7500977 53.87543965 121.7500977 48.84106445 119.87695312 C47.71992752 119.46312378 46.59879059 119.04929443 45.44367981 118.6229248 C43.67138252 117.95879578 43.67138252 117.95879578 41.86328125 117.28125 C40.61276369 116.8175359 39.36204254 116.35437052 38.11112976 115.89172363 C34.84175218 114.68104728 31.57494268 113.46359259 28.30871582 112.2444458 C24.34161455 110.76500062 20.37174196 109.29301245 16.40203381 107.82057953 C13.31366815 106.6750011 10.22595263 105.52774792 7.13948059 104.3770752 C6.02780014 103.96324585 4.91611969 103.5494165 3.77075195 103.12304688 C2.79862259 102.76045776 1.82649323 102.39786865 0.8249054 102.02429199 C-2.10062916 100.96351253 -5.04372869 99.97146031 -8 99 C-8.0093457 98.04222656 -8.01869141 97.08445312 -8.02832031 96.09765625 C-8.06848337 92.51142504 -8.13431125 88.92602821 -8.20751953 85.34033203 C-8.23557787 83.79454343 -8.25686706 82.24861539 -8.27099609 80.70263672 C-8.37098121 67.04601955 -8.37098121 67.04601955 -15.25 55.5 C-15.8275 55.005 -16.405 54.51 -17 54 C-15.62400437 50.92265016 -14.01395144 48.79946159 -11.6875 46.375 C0.30423177 32.9342673 -0.74824401 17.95785618 0 0 Z " fill="#7DC3BA" transform="translate(304,272)"/>
<path d="M0 0 C21.12 0 42.24 0 64 0 C64.33 7.26 64.66 14.52 65 22 C67.14768605 34.09486354 71.61573562 43.86511993 81 52 C79.38092112 55.42642275 77.38806469 58.29602064 75.12109375 61.31640625 C72.5895618 65.11811451 72.78749281 69.12044176 72.68359375 73.51171875 C72.6524221 74.60405571 72.6524221 74.60405571 72.62062073 75.71846008 C72.55531254 78.04137875 72.49632763 80.36440906 72.4375 82.6875 C72.39429695 84.26368335 72.35068208 85.83985548 72.30664062 87.41601562 C72.1996504 91.27722975 72.09833039 95.13855603 72 99 C70.7625 99.43755615 69.525 99.8751123 68.25 100.32592773 C62.49900374 102.36031025 56.74933517 104.39842844 51 106.4375 C49.45835175 106.98398193 49.45835175 106.98398193 47.88555908 107.54150391 C35.04337929 112.09672331 22.21755068 116.6754228 9.515625 121.61108398 C8.25105469 122.09750366 8.25105469 122.09750366 6.9609375 122.59375 C6.25759277 122.86896484 5.55424805 123.14417969 4.82958984 123.42773438 C3 124 3 124 0 124 C0 83.08 0 42.16 0 0 Z " fill="#7DC3BA" transform="translate(144,272)"/>
<path d="M0 0 C0 22.11 0 44.22 0 67 C-32.87456261 80.16017381 -32.87456261 80.16017381 -47.77370453 86.07546616 C-54.7702524 88.85381478 -61.76301249 91.64157566 -68.75370026 94.43463516 C-73.217731 96.21770347 -77.68352421 97.99607706 -82.15332031 99.76464844 C-87.45646198 101.86382835 -92.75413372 103.97629651 -98.046875 106.1015625 C-99.31352242 106.60958782 -99.31352242 106.60958782 -100.60575867 107.12787628 C-111.80627571 111.64101482 -122.64641897 116.43905738 -133.08172607 122.56704712 C-137.85867445 125.2947122 -141.54746295 126.55397372 -147.07391357 126.56558228 C-149 126 -149 126 -150.73439026 124.4178772 C-152.47862962 121.08560466 -152.35973681 118.50841464 -152.34057617 114.75292969 C-152.34101425 114.03058136 -152.34145233 113.30823303 -152.34190369 112.56399536 C-152.33981829 110.18301096 -152.31649986 107.80273597 -152.29296875 105.421875 C-152.28737189 103.76849757 -152.28310222 102.11511515 -152.28010559 100.46173096 C-152.26866386 96.11493132 -152.23920259 91.76843351 -152.20599365 87.42175293 C-152.17527821 82.98433515 -152.16159711 78.5468685 -152.14648438 74.109375 C-152.11433207 65.40609621 -152.06156975 56.70312045 -152 48 C-141.44 48 -130.88 48 -120 48 C-119.625 60.75 -119.625 60.75 -119.52197266 64.75292969 C-119.4863623 65.79868164 -119.45075195 66.84443359 -119.4140625 67.921875 C-119.3826416 68.99018555 -119.3512207 70.05849609 -119.31884766 71.15917969 C-118.9441168 74.91144452 -118.9441168 74.91144452 -117 78 C-111.00121481 79.80913471 -106.70211222 78.30231735 -101.08984375 76.1953125 C-100.22475189 75.88469879 -99.35966003 75.57408508 -98.46835327 75.25405884 C-95.61889279 74.22640165 -92.77826998 73.17641898 -89.9375 72.125 C-87.95311298 71.40158516 -85.9683243 70.67927124 -83.9831543 69.95800781 C-79.8100652 68.43872567 -75.64080979 66.90944277 -71.47363281 65.37402344 C-66.03529874 63.37361482 -60.58471097 61.40934457 -55.12882996 59.45736694 C-50.87743604 57.93453835 -46.6307482 56.39889167 -42.38504028 54.86029053 C-40.33961596 54.12115774 -38.29263456 53.38631951 -36.24411011 52.65582275 C-33.38278303 51.63326783 -30.52872637 50.59254805 -27.67578125 49.546875 C-26.82269379 49.24641266 -25.96960632 48.94595032 -25.09066772 48.63638306 C-23.92490707 48.20294083 -23.92490707 48.20294083 -22.7355957 47.76074219 C-22.05858109 47.51588074 -21.38156647 47.27101929 -20.68403625 47.01873779 C-18.45146812 45.66817213 -17.89244853 44.42745094 -17 42 C-16.82213552 39.19931433 -16.74674768 36.4907419 -16.76171875 33.69140625 C-16.74630219 32.04100737 -16.72999879 30.39061658 -16.71289062 28.74023438 C-16.69642971 26.14849964 -16.68751402 23.55735897 -16.69458008 20.96557617 C-16.69720253 18.45684114 -16.66907032 15.9499012 -16.63671875 13.44140625 C-16.64692551 12.67043106 -16.65713226 11.89945587 -16.66764832 11.1051178 C-16.60067106 7.41042352 -16.0839733 5.1372549 -14.14770508 1.97241211 C-11 0 -11 0 0 0 Z " fill="#FDD581" transform="translate(248,336)"/>
<path d="M0 0 C11.42307692 0 11.42307692 0 15 3 C16.59292006 6.18584011 16.19961554 9.64663077 16.24609375 13.1484375 C16.27903344 14.80990108 16.31224507 16.47135928 16.34570312 18.1328125 C16.39310993 20.75517055 16.43753754 23.37750699 16.47680664 26 C16.51655839 28.52887794 16.56809663 31.05730731 16.62109375 33.5859375 C16.6295079 34.36834808 16.63792206 35.15075867 16.64659119 35.95687866 C16.6236412 41.38032795 16.6236412 41.38032795 19 46 C21.25224014 47.12041241 23.31781035 47.97379935 25.6796875 48.78515625 C26.37957794 49.03892532 27.07946838 49.2926944 27.80056763 49.55415344 C30.1540316 50.40398263 32.51423589 51.23318695 34.875 52.0625 C36.53826006 52.65762236 38.20100914 53.25417448 39.86328125 53.85205078 C42.56515222 54.82331653 45.26751401 55.79303695 47.97186279 56.75738525 C55.63199809 59.49168251 63.2596119 62.30909839 70.8828125 65.14453125 C74.42095711 66.45584486 77.95946397 67.76617585 81.49810791 69.07614136 C83.82900609 69.94067606 86.15888729 70.80795776 88.48773193 71.67800903 C91.7801711 72.90650786 95.07696619 74.12255258 98.375 75.3359375 C99.36098175 75.70713211 100.3469635 76.07832672 101.36282349 76.46076965 C107.9947668 78.92432151 107.9947668 78.92432151 115 79 C118.24849977 77.27773504 118.24849977 77.27773504 119 74 C119.14986411 72.0093556 119.24828038 70.01464609 119.31640625 68.01953125 C119.35451416 66.97128174 119.39262207 65.92303223 119.43188477 64.84301758 C119.47498779 63.51294678 119.51809082 62.18287598 119.5625 60.8125 C119.706875 56.584375 119.85125 52.35625 120 48 C130.56 48 141.12 48 152 48 C152.06773076 57.59658091 152.12278995 67.19300351 152.15543652 76.78976917 C152.17110387 81.24575989 152.19236152 85.70157885 152.22631836 90.1574707 C152.25887388 94.4562976 152.27684495 98.75495912 152.28463173 103.05389977 C152.29018211 104.69539685 152.30102049 106.33688471 152.31719017 107.97831154 C152.33891431 110.2745596 152.3419691 112.57012108 152.34057617 114.86645508 C152.35056892 116.8283654 152.35056892 116.8283654 152.36076355 118.82991028 C152 122 152 122 150.69155884 123.91223145 C147.56492266 125.92283636 144.50105583 125.63985525 141 125 C137.33244693 123.66758203 133.85199503 122.0039604 130.34618187 120.29508018 C115.01916814 112.86587447 99.24079873 106.54263405 83.41796875 100.26171875 C81.64986532 99.55905569 81.64986532 99.55905569 79.84604263 98.84219742 C72.54172544 95.94110815 65.2332014 93.05074952 57.92327881 90.16381836 C50.40481268 87.19363694 42.89107589 84.21149682 35.37643147 81.2316637 C29.55121893 78.92194326 23.72542225 76.61373678 17.89775085 74.31022644 C16.83960175 73.89165878 15.78145264 73.47309113 14.6912384 73.0418396 C12.71388071 72.25974363 10.73624971 71.47833817 8.75830078 70.69773865 C7.89162277 70.3547876 7.02494476 70.01183655 6.13200378 69.65849304 C5.37768161 69.36050151 4.62335943 69.06250998 3.84617901 68.7554884 C2 68 2 68 0 67 C0 44.89 0 22.78 0 0 Z " fill="#FDC35E" transform="translate(264,336)"/>
<path d="M0 0 C42.24 0 84.48 0 128 0 C128 10.56 128 21.12 128 32 C85.76 32 43.52 32 0 32 C0 21.44 0 10.88 0 0 Z " fill="#5A6470" transform="translate(192,32)"/>
<path d="M0 0 C0 31.68 0 63.36 0 96 C-10.56 96 -21.12 96 -32 96 C-32 90.72 -32 85.44 -32 80 C-26.72 80 -21.44 80 -16 80 C-16 74.72 -16 69.44 -16 64 C-21.28 64 -26.56 64 -32 64 C-32.09898193 56.56188833 -32.17152403 49.12416129 -32.21972656 41.68554688 C-32.23982405 39.15585653 -32.26710668 36.62621254 -32.30175781 34.09667969 C-32.35035556 30.45756583 -32.37298812 26.819067 -32.390625 23.1796875 C-32.42159271 21.48717361 -32.42159271 21.48717361 -32.45318604 19.76046753 C-32.45496668 13.50928645 -32.24222985 9.72531353 -28 5 C-18.54384219 -3.33042474 -17.32000472 0 0 0 Z " fill="#54B469" transform="translate(128,272)"/>
<path d="M0 0 C22.78625954 0 22.78625954 0 27.64453125 4.53515625 C30.63262027 8.44265728 32.12716579 10.47464627 32.11352539 15.35791016 C32.11344986 16.25869293 32.11337433 17.15947571 32.11329651 18.08755493 C32.10813522 19.06155243 32.10297394 20.03554993 32.09765625 21.0390625 C32.0962413 22.03505463 32.09482635 23.03104675 32.09336853 24.05722046 C32.08775936 27.24651053 32.0752053 30.43573106 32.0625 33.625 C32.05748618 35.78385315 32.05292307 37.94270741 32.04882812 40.1015625 C32.03778695 45.40106857 32.02051614 50.70052248 32 56 C26.72 56 21.44 56 16 56 C16 61.28 16 66.56 16 72 C21.28 72 26.56 72 32 72 C32 79.92 32 87.84 32 96 C21.44 96 10.88 96 0 96 C0 64.32 0 32.64 0 0 Z " fill="#54B469" transform="translate(384,272)"/>
<path d="M0 0 C21.12 0 42.24 0 64 0 C64 26.01333333 64 26.01333333 59 34 C58.38318359 35.01900391 58.38318359 35.01900391 57.75390625 36.05859375 C53.14121986 42.42327972 45.26572269 45.57809244 38 48 C29.77462485 48.69494167 23.1166797 48.32953898 16 44 C14.95199219 43.38125 14.95199219 43.38125 13.8828125 42.75 C6.24454422 37.67703692 2.83744975 30.51234925 0 22 C0 14.74 0 7.48 0 0 Z " fill="#FDD581" transform="translate(224,272)"/>
<path d="M0 0 C7.36701486 1.79832561 14.34394771 5.26365401 21.27929688 8.28637695 C23.3943701 9.20321843 25.51653497 10.10181661 27.63989258 10.99926758 C28.28065231 11.28565094 28.92141205 11.5720343 29.58158875 11.86709595 C36.00458924 14.56927231 40.20963361 13.15523956 46.4666748 10.61485291 C47.47474182 10.19605614 47.47474182 10.19605614 48.50317383 9.76879883 C49.96011531 9.17938418 51.41714939 8.59019838 52.87426758 8.0012207 C55.14681739 7.07435662 57.41792929 6.1442017 59.68725586 5.20947266 C61.89318448 4.30357703 64.1040021 3.41056297 66.31567383 2.51879883 C67.32374084 2.09696571 67.32374084 2.09696571 68.35217285 1.66661072 C72.34788894 0.06398548 75.60761497 -0.78015454 79.90942383 -0.28979492 C83.23216787 2.16614632 84.68560391 3.63586947 85.53442383 7.71020508 C84.68079355 11.80763043 83.09630619 13.00326246 79.90942383 15.71020508 C77.02842238 17.2928025 74.03843275 18.51720395 70.98754883 19.73364258 C70.12812683 20.08407623 69.26870483 20.43450989 68.38323975 20.79556274 C66.57040209 21.52971782 64.75483653 22.25716861 62.93676758 22.97827148 C60.17254237 24.07997657 57.42412663 25.21584673 54.67504883 26.35473633 C52.90506907 27.06649807 51.13426025 27.77620229 49.36254883 28.48364258 C48.5497345 28.82309906 47.73692017 29.16255554 46.8994751 29.51229858 C37.86473998 33.01861139 30.81184837 31.08439939 22.11254883 27.50708008 C21.31588806 27.18741272 20.51922729 26.86774536 19.69842529 26.53839111 C18.02900816 25.86480114 16.36188377 25.18550286 14.69702148 24.50073242 C12.15886247 23.4599749 9.61125633 22.44549727 7.06176758 21.43286133 C5.43223036 20.77165381 3.80330162 20.10894428 2.17504883 19.44458008 C1.41975891 19.14541687 0.66446899 18.84625366 -0.1137085 18.5380249 C-4.68655655 16.63065382 -7.8689277 14.61942894 -11.09057617 10.71020508 C-11.71557617 7.71020508 -11.71557617 7.71020508 -11.09057617 4.71020508 C-7.94054382 -0.06565043 -5.55703436 -0.76701143 0 0 Z " fill="#040303" transform="translate(219.090576171875,176.289794921875)"/>
<path d="M0 0 C0 14.52 0 29.04 0 44 C-5.89279287 42.52680178 -9.71498052 38.95783077 -13.40625 34.1796875 C-17.05580913 27.9493687 -17.20565701 20.63100044 -15.41015625 13.734375 C-12.91114269 7.8841497 -6.66978387 0 0 0 Z " fill="#FBC25D" transform="translate(176,122)"/>
<path d="M0 0 C5.88391904 1.47097976 9.80018351 5.04246894 13.40625 9.890625 C16.73689394 15.74304221 16.89792209 21.62262979 15.5625 28.1328125 C13.46843664 34.80763947 8.758114 40.16125733 3 44 C2.01 44 1.02 44 0 44 C0 29.48 0 14.96 0 0 Z " fill="#FBC25D" transform="translate(336,122)"/>
<path d="M0 0 C5.28 0 10.56 0 16 0 C16 10.56 16 21.12 16 32 C10.72 32 5.44 32 0 32 C0 21.44 0 10.88 0 0 Z " fill="#000000" transform="translate(248,144)"/>
<path d="M0 0 C5.28 0 10.56 0 16 0 C16 5.28 16 10.56 16 16 C10.72 16 5.44 16 0 16 C0 10.72 0 5.44 0 0 Z " fill="#000000" transform="translate(280,112)"/>
<path d="M0 0 C5.28 0 10.56 0 16 0 C16 5.28 16 10.56 16 16 C10.72 16 5.44 16 0 16 C0 10.72 0 5.44 0 0 Z " fill="#000000" transform="translate(216,112)"/>
</svg>
