<?xml version="1.0" encoding="UTF-8"?>
<svg version="1.1" xmlns="http://www.w3.org/2000/svg" width="512" height="512">
<path d="M0 0 C0.804375 0.53625 1.60875 1.0725 2.4375 1.625 C9.88890683 8.53118194 15.03155912 18.02401804 17 28 C17.06624507 29.74886981 17.08552595 31.50002748 17.0625 33.25 C17.05347656 34.14203125 17.04445313 35.0340625 17.03515625 35.953125 C17.01775391 36.96632813 17.01775391 36.96632813 17 38 C17.65097656 38.08765625 18.30195313 38.1753125 18.97265625 38.265625 C23.05630907 39.25624014 26.64838297 40.95914017 30.4375 42.75 C31.17548828 43.08515625 31.91347656 43.4203125 32.67382812 43.765625 C37.40711843 45.98711592 41.22224501 48.36259504 45 52 C46.10440787 55.68135956 46.21684495 57.34946515 45 61 C45.56460937 61.24492188 46.12921875 61.48984375 46.7109375 61.7421875 C49.3969406 63.21811412 51.35857595 65.06528563 53.625 67.125 C57.19266748 70.15042399 57.19266748 70.15042399 61.59375 71.2421875 C62.84671875 71.12230469 62.84671875 71.12230469 64.125 71 C67.02425219 70.7835706 68.49280485 70.70176533 71.01953125 72.1875 C87.66539263 87.91800852 97.95677181 111.38068545 104 133 C104.19352051 133.67869141 104.38704102 134.35738281 104.58642578 135.05664062 C110.19094781 155.84743677 109.0666408 182.51931614 103 203 C102.67854004 204.09538086 102.67854004 204.09538086 102.35058594 205.21289062 C97.45821844 221.32138449 89.84188861 235.42115368 80 249 C78.64837978 250.98855124 77.32276842 252.9920137 76 255 C76.70125 255.185625 77.4025 255.37125 78.125 255.5625 C83.62172486 258.31086243 87.09959308 263.22468577 89.40234375 268.86987305 C90.63759942 273.27248976 90.4699063 277.7726721 90.4375 282.3125 C90.45748047 283.29412109 90.47746094 284.27574219 90.49804688 285.28710938 C90.49220396 294.11575422 88.52844057 302.10508095 82.25 308.625 C81.63640625 309.27726562 81.0228125 309.92953125 80.390625 310.6015625 C79.93171875 311.06304687 79.4728125 311.52453125 79 312 C81.09566543 315.78831828 83.25826258 319.39732662 85.75 322.9375 C99.35366665 343.15358184 107.11505918 367.42691707 107.25 391.75 C107.2809375 393.16732422 107.2809375 393.16732422 107.3125 394.61328125 C107.31765625 395.51949219 107.3228125 396.42570312 107.328125 397.359375 C107.3374707 398.17889648 107.34681641 398.99841797 107.35644531 399.84277344 C106.90837367 402.55452758 106.19736506 403.3833051 104 405 C100.60908689 406.12412947 97.40691853 406.12635521 93.85266972 406.12863445 C92.58331642 406.1318589 91.31396313 406.13508335 90.00614458 406.1384055 C88.59467755 406.13693432 87.18321061 406.13536659 85.77174377 406.13371277 C84.2745519 406.13558048 82.77736051 406.13788103 81.2801699 406.14057809 C77.16008352 406.14670731 73.04001739 406.14656118 68.91992748 406.14538372 C64.47882134 406.14517999 60.03772175 406.1506957 55.59661865 406.15544128 C46.89387064 406.1637543 38.1911294 406.16649641 29.48837776 406.16705366 C22.41662258 406.16752847 15.34486963 406.16958144 8.27311516 406.17275429 C-11.76544788 406.18156227 -31.80400555 406.18617338 -51.84257054 406.18542381 C-52.9232747 406.18538386 -54.00397886 406.1853439 -55.11743164 406.18530273 C-56.19945124 406.18526185 -57.28147085 406.18522097 -58.39627893 406.18517885 C-75.93957555 406.18477223 -93.48285074 406.19434539 -111.02614116 406.2084411 C-129.02852102 406.22279187 -147.03089041 406.22971202 -165.03327614 406.22884732 C-175.14469023 406.22851493 -185.25608182 406.23128071 -195.36749077 406.24202538 C-203.97506388 406.25111325 -212.5826043 406.25331973 -221.19018012 406.24651595 C-225.58365333 406.2432422 -229.97706377 406.2432248 -234.37053108 406.2518692 C-238.39040707 406.25969738 -242.41017012 406.25834072 -246.43004323 406.24958507 C-247.8862619 406.24804193 -249.34248884 406.24989666 -250.79869776 406.25544515 C-252.77473006 406.26247714 -254.75079668 406.25603334 -256.72682858 406.24888897 C-257.82546952 406.24910634 -258.92411047 406.24932371 -260.05604357 406.24954766 C-264.23816453 405.89504564 -267.02048658 404.97951342 -270 402 C-270 400.68 -270 399.36 -270 398 C-276.6 398 -283.2 398 -290 398 C-290.33 399.65 -290.66 401.3 -291 403 C-295.97396593 406.63928213 -300.96934033 406.42163507 -306.87329102 406.37231445 C-307.85124634 406.37596512 -308.82920166 406.37961578 -309.83679199 406.38337708 C-313.05934176 406.39146247 -316.28138557 406.37788984 -319.50390625 406.36328125 C-321.74779764 406.36276244 -323.9916895 406.36328093 -326.23558044 406.36479187 C-330.93373416 406.36470224 -335.63171594 406.35429044 -340.32983398 406.33618164 C-346.35126988 406.3134819 -352.37245493 406.31295379 -358.39392185 406.31969929 C-363.02559132 406.32304075 -367.65720361 406.316406 -372.28886223 406.30657005 C-374.5092228 406.30272183 -376.72958974 406.30156827 -378.94995308 406.3031559 C-382.05212652 406.3035268 -385.15397839 406.29089944 -388.25610352 406.2746582 C-389.17312546 406.27713562 -390.0901474 406.27961304 -391.03495789 406.28216553 C-396.56163162 406.23599342 -400.89716551 406.10283449 -405 402 C-409.5058911 373.50307863 -396.8481767 343.50612762 -382 320 C-381.51144531 319.21367187 -381.02289063 318.42734375 -380.51953125 317.6171875 C-379.35257651 315.74090733 -378.17728955 313.86981281 -377 312 C-377.68835938 311.30777344 -377.68835938 311.30777344 -378.390625 310.6015625 C-379.00421875 309.94929688 -379.6178125 309.29703125 -380.25 308.625 C-380.85328125 307.99851562 -381.4565625 307.37203125 -382.078125 306.7265625 C-387.41702743 299.15226596 -388.66556234 291.60586076 -388.5625 282.5 C-388.58634766 281.53191406 -388.61019531 280.56382812 -388.63476562 279.56640625 C-388.61883596 271.65467397 -386.64340389 264.84215202 -381.09790039 258.99414062 C-376.6936256 255 -376.6936256 255 -374 255 C-374.71285156 253.98421875 -375.42570312 252.9684375 -376.16015625 251.921875 C-386.94408781 236.46748436 -395.30167648 221.37917338 -400.75 203.3125 C-401.04801514 202.33470581 -401.04801514 202.33470581 -401.35205078 201.3371582 C-404.64746034 189.92182561 -405.37665836 178.61964817 -405.3125 166.8125 C-405.31001251 166.08156128 -405.30752502 165.35062256 -405.30496216 164.59753418 C-405.24816832 153.81172014 -404.96757192 143.44127234 -402 133 C-401.66935547 131.80455566 -401.66935547 131.80455566 -401.33203125 130.58496094 C-394.22998743 105.64325941 -381.57644351 85.08758973 -363 67 C-362.55011719 66.505 -362.10023438 66.01 -361.63671875 65.5 C-342.06303813 44.51779149 -309.2583839 31.00900823 -280.84033203 29.8737793 C-242.57497404 29.04512621 -210.01406115 37.16899101 -180 62 C-179.44731445 62.45487793 -178.89462891 62.90975586 -178.32519531 63.37841797 C-166.92678607 72.90726528 -157.09629973 84.92149537 -150 98 C-150 98.66 -150 99.32 -150 100 C-149.34 100 -148.68 100 -148 100 C-147.72800781 99.27554688 -147.45601563 98.55109375 -147.17578125 97.8046875 C-135.99083583 71.12431936 -108.35382823 51.71594927 -83 40 C-80.35184045 38.92917457 -77.69359695 37.95411008 -75 37 C-74.90525391 35.72769531 -74.90525391 35.72769531 -74.80859375 34.4296875 C-73.40715711 21.00539973 -68.35609005 9.02091587 -57.82421875 0.171875 C-40.26519776 -13.15841845 -17.68679329 -12.8631224 0 0 Z M-150 233 C-151.60040943 235.24178334 -153.09184994 237.48759166 -154.5625 239.8125 C-161.62916863 250.67238225 -169.70220014 259.97928689 -179 269 C-181.475 271.475 -181.475 271.475 -184 274 C-160.9 274 -137.8 274 -114 274 C-117.93759055 270.05590298 -117.93759055 270.05590298 -121.9453125 266.1953125 C-131.39507561 257.12892793 -139.27091669 247.26960249 -146.0625 236.0625 C-146.701875 235.051875 -147.34125 234.04125 -148 233 C-148.66 233 -149.32 233 -150 233 Z " fill="#020101" transform="translate(405,58)"/>
<path d="M0 0 C1.49176758 -0.01836914 1.49176758 -0.01836914 3.01367188 -0.03710938 C9.22230653 -0.04933912 14.67926003 0.61228268 20.6875 2.1875 C20.6968457 3.11908936 20.70619141 4.05067871 20.71582031 5.01049805 C20.7603457 8.53171442 20.82217999 12.05180692 20.89501953 15.57250977 C20.92290842 17.08411933 20.94427906 18.59586604 20.95849609 20.10766602 C21.10582299 34.90419727 23.32225067 49.06761206 33.72265625 60.40625 C43.10771069 69.27818859 53.84271977 73.28675068 66.625 73.8125 C67.40423828 73.85117188 68.18347656 73.88984375 68.98632812 73.9296875 C70.88637379 74.02294127 72.78690278 74.10625962 74.6875 74.1875 C74.89503906 75.00992188 75.10257813 75.83234375 75.31640625 76.6796875 C78.29312552 87.46562427 83.1133043 96.89384808 92.6875 103.1875 C100.31014648 107.40027601 106.65137579 110.25313625 115.375 110.75 C116.07689453 110.79318359 116.77878906 110.83636719 117.50195312 110.88085938 C119.23025206 110.9866736 120.9588511 111.08756581 122.6875 111.1875 C123.89511674 143.69251731 116.39344431 174.20909462 94.6875 199.1875 C94.01203125 199.99574219 93.3365625 200.80398438 92.640625 201.63671875 C76.15268513 220.80244448 54.95616474 232.58477985 30.6875 239.1875 C29.19669922 239.63802734 29.19669922 239.63802734 27.67578125 240.09765625 C12.04191395 244.2320738 -6.58433534 243.79487722 -22.3125 240.1875 C-23.55386719 239.93097656 -24.79523438 239.67445313 -26.07421875 239.41015625 C-44.77027055 235.33283791 -61.72274838 226.57642468 -76.3125 214.1875 C-77.25867188 213.38699219 -78.20484375 212.58648437 -79.1796875 211.76171875 C-100.5978013 193.157438 -115.92555763 165.16311437 -119.125 136.8125 C-119.60779868 128.29646771 -119.38765675 119.71361524 -119.3125 111.1875 C-118.51328125 111.16171875 -117.7140625 111.1359375 -116.890625 111.109375 C-102.77957401 110.38063528 -90.80672177 106.45527998 -81 95.875 C-75.93767428 89.4970416 -72.99104237 81.80019937 -70.3125 74.1875 C-69.36890625 74.16171875 -68.4253125 74.1359375 -67.453125 74.109375 C-52.82563753 73.46318077 -39.38321084 69.9417627 -29 58.9375 C-21.3398322 49.72982356 -18.08722093 39.58723144 -17.8984375 27.75 C-17.87907135 26.98445801 -17.8597052 26.21891602 -17.8397522 25.43017578 C-17.78059054 23.01605925 -17.73382856 20.60189335 -17.6875 18.1875 C-17.64926163 16.53774111 -17.61020661 14.88800093 -17.5703125 13.23828125 C-17.47494249 9.2215085 -17.39068173 5.20464255 -17.3125 1.1875 C-11.48651346 0.11887837 -5.90659453 0.00378385 0 0 Z " fill="#FDCCBD" transform="translate(134.3125,102.8125)"/>
<path d="M0 0 C0.66 0 1.32 0 2 0 C3.33984375 1.58203125 3.33984375 1.58203125 4.9375 3.8125 C23.3034719 27.87305457 52.50814037 41.97626411 82 47 C90.17662432 48.07788872 98.38955129 48.30381701 106.625 48.5625 C107.91535156 48.60568359 109.20570313 48.64886719 110.53515625 48.69335938 C113.69001933 48.79852148 116.84494895 48.90066604 120 49 C125.83351891 82.54523811 120.08653687 115.91357693 100.3125 144.0625 C82.121339 168.94911494 59.17467856 183.16488472 30 192 C28.80375 192.37382812 27.6075 192.74765625 26.375 193.1328125 C-2.57524944 200.57141826 -34.50135983 193.34636868 -60 179 C-82.2180452 165.84174022 -102.04648898 145.5895259 -111 121 C-111.15127797 117.49620691 -110.44382118 115.14678975 -109 112 C-101.85178197 92.28655498 -102.66948066 69.55850988 -105 49 C-104.43829102 48.96036133 -103.87658203 48.92072266 -103.29785156 48.87988281 C-65.1671472 46.08002176 -30.26402531 35.30970295 -4 6 C-3.24224228 4.89110959 -2.50168723 3.77021109 -1.78125 2.63671875 C-1.1934375 1.76660156 -0.605625 0.89648438 0 0 Z " fill="#FDDECE" transform="translate(375,150)"/>
<path d="M0 0 C0.9766713 -0.00058411 1.95334259 -0.00116821 2.95960999 -0.00177002 C6.15761024 0.00099576 9.35465471 0.03201665 12.55249023 0.06347656 C14.78164664 0.0709443 17.01080964 0.07663471 19.23997498 0.08062744 C25.08442564 0.09584171 30.92847366 0.13508744 36.77276611 0.17944336 C42.74550939 0.22048686 48.71831822 0.23865783 54.69116211 0.25878906 C66.3938122 0.30158562 78.0961645 0.36978598 89.79858398 0.45410156 C86.94413283 3.3133056 84.08200155 6.15813159 81.16186523 8.95019531 C57.51309892 31.83365763 42.89885284 59.19991115 38.18530273 91.94238281 C38.05039429 92.86104126 37.91548584 93.77969971 37.77648926 94.72619629 C37.44762892 96.96842587 37.12172297 99.21104158 36.79858398 101.45410156 C35.55465881 101.45774719 34.31073364 101.46139282 33.02911377 101.46514893 C21.31615094 101.50206249 9.6034519 101.55979534 -2.10931015 101.6380043 C-8.13123427 101.67754252 -14.15301076 101.70969994 -20.17504883 101.72509766 C-25.98479666 101.74022233 -31.79413881 101.77459354 -37.60370636 101.82241058 C-39.82206958 101.83726763 -42.0404907 101.84514504 -44.2589035 101.84598541 C-47.36225326 101.84834378 -50.46447152 101.87533289 -53.56762695 101.90820312 C-54.94866608 101.90065758 -54.94866608 101.90065758 -56.35760498 101.89295959 C-61.3967119 101.94471916 -61.3967119 101.94471916 -65.74102783 104.30072021 C-67.36010627 106.47890464 -67.36010627 106.47890464 -68.20141602 109.45410156 C-74.80141602 109.45410156 -81.40141602 109.45410156 -88.20141602 109.45410156 C-89.19141602 107.47410156 -90.18141602 105.49410156 -91.20141602 103.45410156 C-94.31132998 101.89914458 -97.63485651 102.213332 -101.05297852 102.13769531 C-101.82701019 102.11691422 -102.60104187 102.09613312 -103.39852905 102.07472229 C-105.87439994 102.00926708 -108.35037803 101.9503607 -110.82641602 101.89160156 C-112.5035105 101.8484125 -114.18059408 101.80479808 -115.85766602 101.76074219 C-119.97213909 101.65358985 -124.08672016 101.55231111 -128.20141602 101.45410156 C-128.21076172 100.68219482 -128.22010742 99.91028809 -128.22973633 99.11499023 C-128.28336307 95.62320575 -128.36702618 92.13277225 -128.45141602 88.64160156 C-128.4655957 87.42666016 -128.47977539 86.21171875 -128.49438477 84.95996094 C-128.52661133 83.79658203 -128.55883789 82.63320313 -128.59204102 81.43457031 C-128.61298828 80.36102295 -128.63393555 79.28747559 -128.65551758 78.18139648 C-128.96534137 75.36120139 -128.96534137 75.36120139 -131.01293945 73.57250977 C-134.33656932 71.87398808 -136.67280389 72.5392762 -140.20141602 73.45410156 C-142.46011709 76.84215318 -142.49401015 78.22760898 -142.61547852 82.21582031 C-142.65108887 83.22346436 -142.68669922 84.2311084 -142.72338867 85.26928711 C-142.7573877 86.54715088 -142.79138672 87.82501465 -142.82641602 89.14160156 C-143.01204102 95.23628906 -143.01204102 95.23628906 -143.20141602 101.45410156 C-157.72141602 101.45410156 -172.24141602 101.45410156 -187.20141602 101.45410156 C-187.20141602 86.30227508 -187.20141602 86.30227508 -185.13891602 79.14160156 C-184.91558594 78.33819336 -184.69225586 77.53478516 -184.4621582 76.70703125 C-180.45197589 62.87599429 -174.0785225 50.46136659 -166.20141602 38.45410156 C-165.66129883 37.56980469 -165.12118164 36.68550781 -164.56469727 35.77441406 C-162.02240148 32.1754966 -160.43224259 30.66776583 -156.00610352 29.89941406 C-153.5744418 29.76811483 -151.14008268 29.68026381 -148.70532227 29.63378906 C-139.73880473 29.17396765 -133.30084336 24.75028463 -127.20141602 18.45410156 C-125.81808798 16.82869112 -124.45679483 15.18024744 -123.20141602 13.45410156 C-122.85079102 14.67097656 -122.50016602 15.88785156 -122.13891602 17.14160156 C-116.65553369 33.3367075 -107.42370364 43.78876804 -92.29516602 51.41503906 C-79.81098662 57.14641233 -66.05716026 56.97836747 -53.20141602 52.45410156 C-40.1921809 47.18806818 -31.96992937 39.68677935 -25.20141602 27.45410156 C-24.58266602 26.3596875 -24.58266602 26.3596875 -23.95141602 25.24316406 C-21.04086852 19.48627232 -20.62408091 14.00274129 -20.37719727 7.59082031 C-19.20141602 4.45410156 -19.20141602 4.45410156 -17.47648716 3.28874588 C-11.49620484 0.57767926 -6.52387407 -0.10393132 0 0 Z " fill="#6F6BDF" transform="translate(203.201416015625,346.5458984375)"/>
<path d="M0 0 C0.69802734 0.00386719 1.39605469 0.00773437 2.11523438 0.01171875 C2.80939453 0.00785156 3.50355469 0.00398438 4.21875 0 C9.42445449 0.01007881 9.42445449 0.01007881 11.67773438 1.13671875 C11.69175293 2.53410278 11.69175293 2.53410278 11.70605469 3.9597168 C11.75058008 7.48093317 11.81241437 11.00102567 11.88525391 14.52172852 C11.91314279 16.03333808 11.93451343 17.54508479 11.94873047 19.05688477 C12.09605736 33.85341602 14.31248505 48.01683081 24.71289062 59.35546875 C34.09794506 68.22740734 44.83295414 72.23596943 57.61523438 72.76171875 C58.39447266 72.80039063 59.17371094 72.8390625 59.9765625 72.87890625 C61.87660816 72.97216002 63.77713716 73.05547837 65.67773438 73.13671875 C65.88527344 73.95914063 66.0928125 74.7815625 66.30664062 75.62890625 C69.2833599 86.41484302 74.10353867 95.84306683 83.67773438 102.13671875 C91.30038085 106.34949476 97.64161016 109.202355 106.36523438 109.69921875 C107.06712891 109.74240234 107.76902344 109.78558594 108.4921875 109.83007812 C110.22048644 109.93589235 111.94908547 110.03678456 113.67773438 110.13671875 C114.88535112 142.64173606 107.38367868 173.15831337 85.67773438 198.13671875 C85.00226563 198.94496094 84.32679688 199.75320313 83.63085938 200.5859375 C67.00641991 219.91033155 42.09272137 235.95217726 16.36523438 238.88671875 C15.14835937 238.96921875 13.93148437 239.05171875 12.67773438 239.13671875 C-0.11273342 221.47801144 -10.75499253 202.36194741 -16.32226562 181.13671875 C-9.32021224 176.93201175 -9.32021224 176.93201175 -5.88476562 177.63671875 C-5.03914063 178.13171875 -4.19351563 178.62671875 -3.32226562 179.13671875 C12.60314218 186.76123832 28.11136234 186.95872537 44.67773438 181.13671875 C52.73089303 178.00540973 52.73089303 178.00540973 58.67773438 172.13671875 C58.75349315 169.09033048 58.75349315 169.09033048 57.67773438 166.13671875 C55.5302221 164.57890955 55.5302221 164.57890955 52.67773438 163.13671875 C46.59468186 158.59320422 42.68666673 153.50707702 38.67773438 147.13671875 C31.9850724 137.30406791 25.00579883 131.44983684 13.26757812 128.5390625 C6.68767113 127.51684467 -0.30355004 127.74667439 -6.88476562 128.69921875 C-10.16788016 129.11706969 -11.27475735 128.91342882 -14.32226562 128.13671875 C-16.56933803 127.91689645 -18.819978 127.73187888 -21.07226562 127.57421875 C-22.82796875 127.44853516 -22.82796875 127.44853516 -24.61914062 127.3203125 C-25.51117188 127.25972656 -26.40320313 127.19914062 -27.32226562 127.13671875 C-32.96815091 84.99421789 -24.11004361 39.40213383 -6.32226562 1.13671875 C-4.57602683 -0.60952005 -2.32348238 0.00450724 0 0 Z " fill="#FDDECE" transform="translate(143.322265625,103.86328125)"/>
<path d="M0 0 C1.2914835 1.92222566 2.48358338 3.91136423 3.6328125 5.921875 C3.98834198 6.53710022 4.34387146 7.15232544 4.71017456 7.78619385 C5.85554175 9.77014629 6.99091718 11.75957876 8.125 13.75 C18.09473091 33.9741183 18.09473091 33.9741183 35 47 C42.10022002 47.65032045 47.75187463 47.31715929 54.0625 43.875 C56 43 56 43 60 43 C61.68496298 43.96885372 63.35178756 44.96986723 65 46 C71.85165267 48.16524089 79.64352607 48.20997047 86.125 45 C92.56278897 40.6223035 96.00808284 33.79988492 99.76660156 27.17089844 C101.39000463 24.3135548 103.06685713 21.48994603 104.75366211 18.66967773 C105.52447242 17.37905928 106.28867218 16.0844622 107.04516602 14.78540039 C108.7737217 11.85061258 110.41429437 9.24526789 113 7 C113.61875 7.97839844 113.61875 7.97839844 114.25 8.9765625 C119.27303843 16.57839298 125.65298638 23.95178484 135 26 C137.49940216 26.08303662 139.99961048 26.14324532 142.5 26.1875 C150.68774049 26.64594912 150.68774049 26.64594912 153.875 30.125 C154.97545245 31.7107802 156.0097602 33.34315976 157 35 C158.07121094 36.63582031 158.07121094 36.63582031 159.1640625 38.3046875 C166.66827625 49.99862227 172.22384602 62.28201124 175.875 75.6875 C176.07834961 76.42258789 176.28169922 77.15767578 176.49121094 77.91503906 C178.22608074 84.75529694 178.43757581 90.68848555 179 98 C164.15 98 149.3 98 134 98 C133.75 85.75 133.75 85.75 133.70214844 81.90527344 C133.6715332 80.90012695 133.64091797 79.89498047 133.609375 78.859375 C133.58842773 77.83295898 133.56748047 76.80654297 133.54589844 75.74902344 C132.86522373 72.32129662 131.73928975 71.11316638 129 69 C125.95746492 68.41654524 125.95746492 68.41654524 123 69 C116.96078141 74.35981056 116.96078141 74.35981056 119 98 C79.07 98 39.14 98 -2 98 C-2.495 85.13 -2.495 85.13 -3 72 C-6.65078227 68.60856598 -6.65078227 68.60856598 -10.625 69.125 C-14.25935918 69.66730764 -14.25935918 69.66730764 -16 73 C-16.36798693 75.71075544 -16.36798693 75.71075544 -16.4140625 78.76171875 C-16.44967285 79.76936279 -16.4852832 80.77700684 -16.52197266 81.81518555 C-16.55597168 83.09304932 -16.5899707 84.37091309 -16.625 85.6875 C-16.810625 91.7821875 -16.810625 91.7821875 -17 98 C-32.18 98 -47.36 98 -63 98 C-58.92479932 63.36079418 -46.65239174 34.83827396 -20 12 C-4.49371161 0 -4.49371161 0 0 0 Z " fill="#F95A72" transform="translate(318,350)"/>
<path d="M0 0 C4.00870292 2.1821956 5.9129998 1.94319477 10.2578125 0.7734375 C11.2478125 0.1134375 12.2378125 -0.5465625 13.2578125 -1.2265625 C18.33403509 2.68776914 23.36408938 6.63259486 28.2578125 10.7734375 C27.9278125 11.7634375 27.5978125 12.7534375 27.2578125 13.7734375 C26.74481744 18.25145685 26.90577952 20.22856293 29.3828125 24.0625 C30.32712071 25.1864139 31.28630173 26.29795249 32.2578125 27.3984375 C33.27847947 28.62734022 34.2940397 29.86050065 35.3046875 31.09765625 C35.80806641 31.71302246 36.31144531 32.32838867 36.83007812 32.96240234 C42.51903079 40.17865591 53.2578125 54.93500939 53.2578125 64.7734375 C25.78959129 65.40920048 25.78959129 65.40920048 13.2578125 61.7734375 C12.45923828 61.54237305 11.66066406 61.31130859 10.83789062 61.07324219 C-14.9460904 53.45306936 -37.88436134 40.70011457 -51.7421875 16.7734375 C-52.15855469 15.95617187 -52.57492187 15.13890625 -53.00390625 14.296875 C-55.03669933 10.33372324 -55.03669933 10.33372324 -58.65234375 8.00390625 C-61.05426762 7.73902119 -62.49974895 7.86273287 -64.7421875 8.7734375 C-66.97481917 11.13558648 -68.27195459 13.89543256 -69.7421875 16.7734375 C-84.82556586 41.71902479 -109.12076145 54.81691336 -136.60546875 62.03125 C-137.64058594 62.27617187 -138.67570312 62.52109375 -139.7421875 62.7734375 C-140.68449219 62.99773437 -141.62679688 63.22203125 -142.59765625 63.453125 C-151.89526617 65.32547127 -161.3059442 64.95110735 -170.7421875 64.7734375 C-172.18882399 62.47583838 -172.7739211 61.17719696 -172.55859375 58.4375 C-168.06813424 43.78442161 -158.0689324 31.72710115 -147.7421875 20.7734375 C-147.02933594 19.97292969 -146.31648438 19.17242187 -145.58203125 18.34765625 C-109.42365515 -20.5396539 -44.77933618 -27.05517157 0 0 Z " fill="#EAE8F3" transform="translate(436.7421875,119.2265625)"/>
<path d="M0 0 C0.99 0.495 0.99 0.495 2 1 C1.53722656 1.37125 1.07445312 1.7425 0.59765625 2.125 C-7.53647169 11.67116482 -5.28955601 34.29489322 -6 46 C-6.94359375 45.36578125 -7.8871875 44.7315625 -8.859375 44.078125 C-14.86985309 40.10104248 -19.84746983 39.12774022 -27 40 C-32.91285416 41.80670544 -36.56355449 44.94640367 -40 50 C-41.96771231 54.40392754 -42.44490048 58.19507484 -42 63 C-41.04826062 65.52040427 -41.04826062 65.52040427 -39 67 C-35.43475151 67.60685081 -33.74045554 67.51420524 -30.75 65.4375 C-28.59979337 62.44256933 -27.98070962 59.53055463 -27 56 C-23.76746204 53.84497469 -22.74849077 53.53143865 -19 54 C-16.1402889 56.21715873 -15.47157283 58.18934423 -14.8125 61.6875 C-14.65394531 62.49574219 -14.49539063 63.30398437 -14.33203125 64.13671875 C-14.22246094 64.75160156 -14.11289062 65.36648437 -14 66 C-13.06027344 66.05607422 -13.06027344 66.05607422 -12.1015625 66.11328125 C-11.28429687 66.17902344 -10.46703125 66.24476563 -9.625 66.3125 C-8.81289063 66.37050781 -8.00078125 66.42851562 -7.1640625 66.48828125 C-5 67 -5 67 -3 70 C-2.50785908 71.71703673 -2.08358456 73.45403442 -1.703125 75.19921875 C-1.46996582 76.23570557 -1.23680664 77.27219238 -0.99658203 78.34008789 C-0.75020996 79.44473389 -0.50383789 80.54937988 -0.25 81.6875 C6.70591352 111.5877051 20.4732091 136.50224162 41.3125 159.06640625 C43 161 43 161 43 162 C9.68737178 163.32660909 -19.96315524 150.55234134 -44.53076172 128.3671875 C-54.81416927 118.79804787 -71.4690084 100.29845065 -72.12109375 85.1953125 C-71.63616324 82.92721232 -70.96510242 81.10342835 -70 79 C-62.85178197 59.28655498 -63.66948066 36.55850988 -66 16 C-65.43829102 15.96036133 -64.87658203 15.92072266 -64.29785156 15.87988281 C-42.58105619 14.28526214 -21.25599476 11.52641729 -1.87109375 0.82470703 C-1.25363281 0.55255371 -0.63617188 0.28040039 0 0 Z " fill="#FDCCBD" transform="translate(336,183)"/>
<path d="M0 0 C3.72934473 0.69984147 3.72934473 0.69984147 6.8125 -0.5625 C17.5105821 -1.51378718 28.23171451 -0.12814064 37.1875 6.1875 C42.79389155 10.89875341 47.16098013 16.12489463 50.75 22.5 C54.69690701 29.35959775 60.0746758 33.474074 66.8125 37.4375 C68.8125 40.4375 68.8125 40.4375 68.75 43.375 C67.56467826 47.24705102 66.08428452 48.12476592 62.8125 50.4375 C48.37567239 57.93191198 31.64730566 61.28177274 15.8125 56.6875 C12.20255405 55.45764096 9.0304899 54.10148498 5.8125 52.0625 C4.8225 51.52625 3.8325 50.99 2.8125 50.4375 C0.4214195 51.16224911 0.4214195 51.16224911 -2.1875 52.4375 C-4.37319958 53.29626324 -6.56080175 54.15019535 -8.75 55 C-9.86503906 55.43441406 -10.98007813 55.86882812 -12.12890625 56.31640625 C-25.70810381 61.2937111 -41.56493306 58.8354035 -54.4609375 52.94140625 C-62.50406248 48.70873812 -62.50406248 48.70873812 -65.1875 45.4375 C-65.70865515 41.93831539 -65.74584215 40.19684533 -63.625 37.3125 C-61.1875 35.4375 -61.1875 35.4375 -57.8125 33.625 C-50.9379788 29.82862262 -47.41647105 23.31848672 -43.54296875 16.7265625 C-38.63421124 8.43684521 -30.93078361 3.47654805 -21.9921875 0.12109375 C-14.82779508 -1.62510217 -7.25699064 -0.87462102 0 0 Z " fill="#040403" transform="translate(134.1875,231.5625)"/>
<path d="M0 0 C0 0.33 0 0.66 0 1 C-0.969375 1.144375 -1.93875 1.28875 -2.9375 1.4375 C-16.21017496 5.37408496 -26.48484178 25.49600573 -32.85620117 36.92114258 C-35.80257437 42.38191448 -38.32300184 48.00955418 -40.61816406 53.77319336 C-43.46738734 60.74124663 -47.39783674 63.56808755 -54 66.8125 C-54.69424072 67.15434326 -55.38848145 67.49618652 -56.10375977 67.84838867 C-76.67262215 77.68231571 -96.32532945 81.67202646 -119 81 C-120.44663649 78.70240088 -121.0317336 77.40375946 -120.81640625 74.6640625 C-116.32594674 60.01098411 -106.3267449 47.95366365 -96 37 C-95.28714844 36.19949219 -94.57429688 35.39898437 -93.83984375 34.57421875 C-69.6173957 8.52366142 -34.4263997 -0.70257959 0 0 Z " fill="#D9D6EF" transform="translate(385,103)"/>
<path d="M0 0 C0.10001808 4.08920079 0.17200015 8.17791311 0.21972656 12.26806641 C0.23965342 13.65491156 0.2668056 15.04167482 0.30175781 16.42822266 C0.59014741 28.17585774 -0.71272622 37.4190986 -9 46.2421875 C-15.12029432 51.62135243 -21.4346065 54.08160369 -29.5 54.17578125 C-31.0778125 54.21155273 -31.0778125 54.21155273 -32.6875 54.24804688 C-34.89563647 54.29101179 -37.10403194 54.32226443 -39.3125 54.34179688 C-40.364375 54.36951172 -41.41625 54.39722656 -42.5 54.42578125 C-43.93859375 54.44765503 -43.93859375 54.44765503 -45.40625 54.4699707 C-48.72464725 55.14808068 -49.92333087 56.37260372 -52 59 C-52.6917201 61.92306064 -52.6917201 61.92306064 -52.875 65.125 C-53.99132695 73.69954577 -57.12186054 80.06148295 -64 85.4375 C-65.31790944 86.31527742 -66.65020613 87.17208999 -68 88 C-68.94875 88.61875 -69.8975 89.2375 -70.875 89.875 C-75.27120676 91.45763444 -79.37695219 91.24668437 -84 91 C-83.46894009 85.48796437 -82.44432434 80.61819624 -80.4375 75.4375 C-80.17501465 74.75276611 -79.9125293 74.06803223 -79.64208984 73.36254883 C-73.24650187 57.18427246 -63.92694836 43.64722588 -52 31 C-51.38769531 30.32324219 -50.77539062 29.64648438 -50.14453125 28.94921875 C-39.41823594 17.53680647 -16.44212314 0 0 0 Z " fill="#D8D5EE" transform="translate(102,108)"/>
<path d="M0 0 C6.88970149 2.18460952 13.5682385 4.43567392 20 7.75 C20.67514648 8.09506592 21.35029297 8.44013184 22.04589844 8.7956543 C33.45539243 14.74203634 42.79309036 22.13457345 52 31 C52.70769531 31.63292969 53.41539062 32.26585937 54.14453125 32.91796875 C67.77197185 45.49073981 83.31019279 69.8542001 84.125 88.92578125 C84.08375 89.61027344 84.0425 90.29476562 84 91 C75.57484145 91.98689493 69.87220528 89.8808891 63 85 C57.21549062 80.07777773 53.65193803 73.02699204 52.67578125 65.5 C52.56513925 64.00510366 52.49087283 62.50663447 52.46875 61.0078125 C51.77951603 58.05559368 50.31085232 56.9117363 48 55 C45.4689144 54.42732765 45.4689144 54.42732765 42.7109375 54.53125 C41.68613281 54.51707031 40.66132813 54.50289062 39.60546875 54.48828125 C37.47526011 54.49600873 35.34505176 54.50381934 33.21484375 54.51171875 C23.20997897 54.3743236 15.17562656 52.00762039 7.7578125 45.0703125 C2.31982183 38.66556793 -0.13257987 31.42142854 -0.09765625 23.14453125 C-0.0962413 22.48289474 -0.09482635 21.82125824 -0.09336853 21.13957214 C-0.08777996 19.03050172 -0.07522965 16.92153823 -0.0625 14.8125 C-0.05748352 13.38086091 -0.05292087 11.94922015 -0.04882812 10.51757812 C-0.0378143 7.01168412 -0.02055755 3.5058525 0 0 Z " fill="#E9E7F2" transform="translate(170,108)"/>
<path d="M0 0 C3.57789788 -0.30321168 6.59820764 -0.86606921 10 -2 C17.70424478 -2.71158211 23.98378467 -1.74039976 30.41015625 2.64453125 C33.63451128 5.57708944 35.78907459 8.78359832 38.125 12.4375 C38.76888672 13.42073242 38.76888672 13.42073242 39.42578125 14.42382812 C41.694934 17.90435934 43.88947699 21.42038745 46 25 C37.77873518 28.13191041 28.01587379 28.50898058 19.75 25.375 C16.22561261 23.77195352 13.06225239 21.78395681 9.8125 19.6875 C6.62738736 17.73773478 5.23909634 17.01677869 1.4375 16.75 C-2.44522057 18.16189839 -5.33203614 20.14580174 -8.69921875 22.5 C-16.45477176 27.55625188 -24.94756192 27.8171603 -34 27 C-36.0206019 26.39865782 -38.02987952 25.75037973 -40 25 C-35.35730526 14.97888294 -28.71093195 4.60016934 -19 -1 C-12.43247624 -3.18917459 -6.41550197 -2.13850066 0 0 Z " fill="#E8E6F1" transform="translate(133,248)"/>
<path d="M0 0 C1.2065625 0.27714844 2.413125 0.55429687 3.65625 0.83984375 C5.27078763 1.20593077 6.88537357 1.57180483 8.5 1.9375 C9.29148437 2.11990234 10.08296875 2.30230469 10.8984375 2.49023438 C31.43443001 7.11924908 53.47054897 6.29507817 74 2 C72.27622193 11.66667701 67.55955848 20.77510374 59.640625 26.79296875 C49.37863032 33.24655236 39.13302742 36.02420661 27.0390625 33.34375 C16.89261824 30.04686615 8.06072552 23.10943221 2.74609375 13.8046875 C0.39140171 8.96403139 -0.17200718 5.45130434 0 0 Z " fill="#FAAD9B" transform="translate(95,354)"/>
<path d="M0 0 C6.88374804 4.42806563 13.68154088 10.31245811 15.58203125 18.609375 C15.82941376 20.50485993 15.95633539 22.41539596 16.05859375 24.32421875 C14.22508607 24.18059398 12.39179592 24.0341917 10.55859375 23.88671875 C9.53765625 23.80550781 8.51671875 23.72429687 7.46484375 23.640625 C5.04888422 23.41620674 2.63832125 23.12981986 0.234375 22.80078125 C-4.26627443 22.22786393 -8.72069575 22.13311954 -13.25390625 22.13671875 C-14.10823242 22.13607422 -14.96255859 22.13542969 -15.84277344 22.13476562 C-24.94747098 22.2081637 -33.91732808 23.18089663 -42.94140625 24.32421875 C-43.31578484 16.89012962 -40.33799193 12.09921269 -35.56640625 6.57421875 C-25.33785921 -2.19310728 -12.90394716 -6.74793567 0 0 Z " fill="#C7C2EB" transform="translate(389.94140625,66.67578125)"/>
<path d="M0 0 C3.5386994 1.65139305 4.81070153 2.71605229 7 6 C7.8182839 14.55392122 8.14831779 22.76452635 3 30 C-2.56698007 35.15964006 -6.43264186 36.5198189 -13.91796875 36.375 C-19.2801569 35.72256646 -22.90278469 33.51910411 -26.33984375 29.390625 C-29.11258739 25.08843202 -29.46526355 21.00990947 -30 16 C-29.09378906 15.43152344 -28.18757813 14.86304688 -27.25390625 14.27734375 C-26.02283964 13.49833983 -24.79241479 12.71832117 -23.5625 11.9375 C-22.92304443 11.53281494 -22.28358887 11.12812988 -21.62475586 10.71118164 C-17.89580307 8.31967052 -14.44851799 5.80620969 -11.0625 2.9375 C-7.30960561 -0.06342297 -4.89154148 -0.94068105 0 0 Z " fill="#ECAC9F" transform="translate(473,326)"/>
<path d="M0 0 C2.47464587 1.47835987 4.31475357 2.76317379 6.4375 4.625 C7.55216771 5.55511145 8.6693675 6.48219669 9.7890625 7.40625 C10.59972168 8.08107422 10.59972168 8.08107422 11.42675781 8.76953125 C13.58898197 10.46065629 15.92870335 11.77142462 18.3125 13.125 C21.7216997 15.36012908 21.91410676 15.61961565 22.875 19.875 C22.18031576 25.3693208 19.57825529 29.92339619 15.2734375 33.390625 C9.88863179 36.53730159 4.08716863 37.15186597 -2 36 C-7.11080566 33.66216903 -11.12490987 29.78647954 -13.375 24.61328125 C-14.23345826 21.02385265 -14.43023325 17.48605155 -14.5 13.8125 C-14.51869141 13.1230127 -14.53738281 12.43352539 -14.55664062 11.72314453 C-14.49566151 6.88116845 -13.42343725 4.3915022 -10 1 C-6.76927402 -0.61536299 -3.49702957 -0.53178772 0 0 Z " fill="#FBCABC" transform="translate(46,326)"/>
<path d="M0 0 C4.34473891 3.24060072 8.16626127 7.23706507 9.890625 12.41015625 C10.35981072 17.01740618 10.75134737 21.01975858 8.265625 25.03515625 C5.16157634 26.83223706 3.42406247 26.9990625 -0.109375 26.41015625 C-3.94135553 23.78251245 -5.08496134 20.36635156 -6.49609375 16.1171875 C-6.97530328 14.40210009 -6.97530328 14.40210009 -8.109375 13.41015625 C-10.44882236 13.6974568 -12.7832893 14.02952404 -15.109375 14.41015625 C-15.27953125 15.02503906 -15.4496875 15.63992187 -15.625 16.2734375 C-17.5864599 22.81511493 -17.5864599 22.81511493 -19.921875 25.47265625 C-22.94264928 26.7672738 -24.85775369 26.95209314 -28.109375 26.41015625 C-31.17026952 23.75201101 -32.01550253 22.12090495 -32.546875 18.09765625 C-31.61253865 10.2225356 -29.35541969 5.81258128 -23.078125 0.8203125 C-16.16664904 -4.13016929 -7.37905979 -4.18446683 0 0 Z " fill="#060404" transform="translate(325.109375,224.58984375)"/>
<path d="M0 0 C4.53648325 3.21398305 7.5547929 7.3831287 9.3046875 12.6328125 C9.98161058 19.62768429 9.98161058 19.62768429 7.2421875 23.6953125 C4.3046875 25.6328125 4.3046875 25.6328125 0.6796875 25.6953125 C-2.6953125 24.6328125 -2.6953125 24.6328125 -4.5078125 23.0078125 C-6.02456277 19.97431196 -6.87442933 16.91634517 -7.6953125 13.6328125 C-12.21643069 12.4801789 -12.21643069 12.4801789 -16.5078125 13.6328125 C-17.90332318 15.77761466 -17.90332318 15.77761466 -18.6328125 19.1328125 C-19.6953125 22.6328125 -19.6953125 22.6328125 -21.3828125 24.6328125 C-24.7963306 26.10892844 -27.15454196 25.55079005 -30.6953125 24.6328125 C-33.67952773 20.15648965 -33.29090391 15.88004821 -32.6953125 10.6328125 C-29.93148112 4.77348997 -24.88311724 0.47838367 -19.3203125 -2.7421875 C-12.07567123 -4.46710209 -6.55094635 -3.5713882 0 0 Z " fill="#050404" transform="translate(449.6953125,225.3671875)"/>
<path d="M0 0 C2.8125 2 2.8125 2 5 4 C7.86608129 5.43304064 9.81300783 5.30644155 13 5 C16.20212693 3.19867777 16.20212693 3.19867777 19 1 C22 -1 22 -1 25.5 -0.8125 C29 0 29 0 30.9375 1.1875 C32.66525127 4.1348404 32.6386616 5.61509354 32 9 C28.52615498 14.77860759 24.01897389 18.22654367 17.671875 20.37109375 C9.69936681 22.24766366 3.38116187 21.53998186 -3.76171875 17.484375 C-7.18664326 15.21304636 -9.48819781 13.30500288 -12 10 C-12.6875 6.375 -12.6875 6.375 -12 3 C-8.30847672 -1.47457368 -5.41631006 -1.54751716 0 0 Z " fill="#070605" transform="translate(366,253)"/>
<path d="M0 0 C-2.07277251 3.52885237 -4.15425402 7.05239863 -6.24389648 10.57128906 C-6.95333458 11.76875963 -7.66038891 12.96764582 -8.36499023 14.16796875 C-9.37894947 15.89434333 -10.40225106 17.61522007 -11.42578125 19.3359375 C-12.03848877 20.37282715 -12.65119629 21.4097168 -13.2824707 22.47802734 C-15 25 -15 25 -18 27 C-23.63636364 27.72727273 -23.63636364 27.72727273 -26 27 C-28.83551615 24.43549609 -30.67612699 22.70472072 -31.39648438 18.91308594 C-31.49098319 16.63003467 -31.43816358 14.40627739 -31.3125 12.125 C-31.28994141 11.34125 -31.26738281 10.5575 -31.24414062 9.75 C-31.18568018 7.8324974 -31.09601283 5.9159894 -31 4 C-30.14619751 3.87939209 -30.14619751 3.87939209 -29.27514648 3.75634766 C-26.66185196 3.38427099 -24.04969869 3.00469066 -21.4375 2.625 C-20.54224609 2.49867188 -19.64699219 2.37234375 -18.72460938 2.2421875 C-14.75154923 1.66005415 -10.92963981 1.05357714 -7.09765625 -0.1640625 C-3.97184806 -1.00759712 -2.96250156 -0.90568706 0 0 Z " fill="#F4C660" transform="translate(414,356)"/>
<path d="M0 0 C0.66 0.33 1.32 0.66 2 1 C2.59765625 3.84375 2.59765625 3.84375 3.0625 7.5 C3.22878906 8.76199219 3.39507812 10.02398437 3.56640625 11.32421875 C3.91966887 14.31899464 4.22352632 17.31009282 4.5 20.3125 C4.665 21.529375 4.83 22.74625 5 24 C5.66 24.33 6.32 24.66 7 25 C-2.13240454 29.1748135 -11.60777566 30.9140146 -21.41796875 27.9765625 C-22.27003906 27.65429688 -23.12210937 27.33203125 -24 27 C-19.35730526 16.97888294 -12.71093195 6.60016934 -3 1 C-2.01 0.67 -1.02 0.34 0 0 Z " fill="#D5D2EB" transform="translate(117,246)"/>
<path d="M0 0 C0.99257813 0.19335938 1.98515625 0.38671875 3.0078125 0.5859375 C11.97976316 2.31259385 20.94054656 3.79679134 30 5 C30.13539281 7.89740622 30.23426829 10.78845621 30.3125 13.6875 C30.35439453 14.50412109 30.39628906 15.32074219 30.43945312 16.16210938 C30.52872668 20.57222304 30.44267092 22.41453201 27.69921875 26.04296875 C25 28 25 28 21.5 28.625 C17.2319166 27.86284225 15.59019947 26.28032491 13 23 C10.58452211 19.33194408 8.38053184 15.55418901 6.1875 11.75 C5.59001953 10.73164063 4.99253906 9.71328125 4.37695312 8.6640625 C0 1.16071429 0 1.16071429 0 0 Z " fill="#F8DE96" transform="translate(338,355)"/>
<path d="M0 0 C3.3271102 0.98581043 4.3365204 1.35651811 6.375 4 C6.9978433 7.11572188 6.83855069 10.2664207 6.8125 13.4375 C6.83248047 14.29666016 6.85246094 15.15582031 6.87304688 16.04101562 C6.86817989 22.31456355 6.86817989 22.31456355 4.53125 25.5625 C1.53128688 27.56247541 -0.08809915 27.64963485 -3.625 27 C-6.27208201 25.00006911 -8.27620717 23.3942865 -9.10620117 20.07641602 C-9.29818739 17.86357615 -9.30751388 15.72003594 -9.25 13.5 C-9.26933594 12.75363281 -9.28867188 12.00726563 -9.30859375 11.23828125 C-9.2716222 7.06049631 -8.9277607 5.396862 -6.3125 1.96875 C-3.625 0 -3.625 0 0 0 Z " fill="#070605" transform="translate(199.625,207)"/>
<path d="M0 0 C2.78943398 2.54941292 3.01466933 4.12310017 3.46875 7.93359375 C3.49520119 9.43469894 3.50512837 10.93617054 3.5 12.4375 C3.52835938 13.18837891 3.55671875 13.93925781 3.5859375 14.71289062 C3.60080186 18.93808374 3.34823363 20.55351681 0.66015625 24 C-2 26 -2 26 -5.0625 26.5625 C-8.81870299 25.84322709 -9.75630487 25.10046479 -12 22 C-12.61993336 18.82450035 -12.60386933 15.72680801 -12.5625 12.5 C-12.58634766 11.64535156 -12.61019531 10.79070312 -12.63476562 9.91015625 C-12.6247373 5.62471685 -12.61806588 3.69440905 -9.69140625 0.40625 C-5.99789115 -1.52359824 -3.94898533 -1.17006973 0 0 Z " fill="#060504" transform="translate(78,208)"/>
<path d="M0 0 C2.94925938 2.20007363 3.89016295 3.40687993 4.56640625 7.05859375 C4.55596504 16.09023902 4.55596504 16.09023902 1.9375 20.375 C-1 22 -1 22 -4.625 22.0625 C-8.40341042 20.87300042 -9.10892741 20.36128333 -11 17 C-11.43359375 13.90625 -11.43359375 13.90625 -11.4375 10.5 C-11.45683594 9.3759375 -11.47617187 8.251875 -11.49609375 7.09375 C-10.42186509 0.39462323 -6.25730946 -0.89390135 0 0 Z " fill="#050202" transform="translate(380,411)"/>
</svg>
