<?xml version="1.0" encoding="UTF-8"?>
<svg version="1.1" xmlns="http://www.w3.org/2000/svg" width="512" height="512">
<path d="M0 0 C1.01790619 0.00215515 2.03581238 0.0043103 3.08456421 0.00653076 C17.69363523 0.05620146 32.02575853 0.30709809 46.375 3.3125 C47.34985352 3.51117676 48.32470703 3.70985352 49.32910156 3.91455078 C97.7109774 14.03517194 141.69928269 35.9516877 177.375 70.3125 C178.3640332 71.26068604 178.3640332 71.26068604 179.37304688 72.22802734 C188.86130305 81.37247479 197.6012044 90.66984009 205.375 101.3125 C206.23306152 102.46355017 207.09113451 103.61459177 207.94921875 104.765625 C213.98736829 112.95680614 219.34595521 121.47054105 224.375 130.3125 C224.73948242 130.94430176 225.10396484 131.57610352 225.47949219 132.22705078 C247.08534998 169.97532572 256.85198095 212.74189997 256.6875 255.9375 C256.68534485 256.95540619 256.6831897 257.97331238 256.68096924 259.02206421 C256.63129854 273.63113523 256.38040191 287.96325853 253.375 302.3125 C253.07698486 303.77478027 253.07698486 303.77478027 252.77294922 305.26660156 C242.65232806 353.6484774 220.7358123 397.63678269 186.375 433.3125 C185.74287598 433.97185547 185.11075195 434.63121094 184.45947266 435.31054688 C175.31259947 444.80132 166.01054306 453.52570776 155.375 461.3125 C154.28219886 462.13494754 153.18975034 462.95786382 152.09765625 463.78125 C122.94963538 485.45695742 90.29339124 500.00353906 54.875 507.5 C53.7008252 507.75023926 52.52665039 508.00047852 51.31689453 508.25830078 C35.36787394 511.51594495 19.89624193 512.66440993 3.64770508 512.62817383 C0.70811513 512.6250221 -2.2304558 512.64854926 -5.16992188 512.67382812 C-22.44649934 512.73179535 -39.39270664 510.84436055 -56.25 507 C-57.19472168 506.78762695 -58.13944336 506.57525391 -59.11279297 506.35644531 C-103.52662861 496.11681581 -143.81150029 473.91658786 -176.625 442.3125 C-177.28435547 441.68037598 -177.94371094 441.04825195 -178.62304688 440.39697266 C-188.11130305 431.25252521 -196.8512044 421.95515991 -204.625 411.3125 C-205.48306152 410.16144983 -206.34113451 409.01040823 -207.19921875 407.859375 C-213.23677396 399.66974019 -218.61957302 391.16711724 -223.625 382.3125 C-224.0271875 381.60528809 -224.429375 380.89807617 -224.84375 380.16943359 C-237.8691741 357.03404164 -246.61801461 331.86287591 -251.9375 305.875 C-252.08485596 305.15610596 -252.23221191 304.43721191 -252.3840332 303.6965332 C-255.35789088 288.05024391 -255.99800362 272.57681954 -255.9375 256.6875 C-255.93534485 255.66959381 -255.9331897 254.65168762 -255.93096924 253.60293579 C-255.88129854 238.99386477 -255.63040191 224.66174147 -252.625 210.3125 C-252.42632324 209.33764648 -252.22764648 208.36279297 -252.02294922 207.35839844 C-241.90232806 158.9765226 -219.9858123 114.98821731 -185.625 79.3125 C-184.99287598 78.65314453 -184.36075195 77.99378906 -183.70947266 77.31445312 C-174.56502521 67.82619695 -165.26765991 59.0862956 -154.625 51.3125 C-153.47394983 50.45443848 -152.32290823 49.59636549 -151.171875 48.73828125 C-142.98224019 42.70072604 -134.47961724 37.31792698 -125.625 32.3125 C-124.91778809 31.9103125 -124.21057617 31.508125 -123.48193359 31.09375 C-100.34654164 18.0683259 -75.17537591 9.31948539 -49.1875 4 C-48.46860596 3.85264404 -47.74971191 3.70528809 -47.0090332 3.5534668 C-31.36274391 0.57960912 -15.88931954 -0.06050362 0 0 Z " fill="#FED564" transform="translate(255.625,-0.3125)"/>
<path d="M0 0 C0.22817003 29.18127937 0.40511862 58.36247163 0.51065329 87.54446486 C0.52316023 90.99033807 0.53610346 94.43620951 0.54931641 97.88208008 C0.55193951 98.5680853 0.55456261 99.25409053 0.55726521 99.96088379 C0.60076825 111.06592242 0.67960731 122.17044292 0.77152796 133.27517427 C0.86507387 144.671375 0.91984529 156.06719191 0.94088495 167.46380085 C0.95392993 173.86466003 0.98461527 180.26434447 1.05730057 186.66482735 C1.12515796 192.68896065 1.14612027 198.71143505 1.13107681 204.73591423 C1.1338289 206.94710684 1.15373552 209.15835465 1.19205475 211.36921692 C1.46748119 228.07928069 1.46748119 228.07928069 -2.13420486 232.79336357 C-4.7101388 234.63604602 -7.07295383 235.81734125 -10 237 C-11.61250403 237.98310204 -13.2115474 238.98902541 -14.7890625 240.02734375 C-37.36527709 253.72501225 -61.68096413 266.61349402 -88 271 C-88 181.57 -88 92.14 -88 0 C-65.6142732 -9.42556918 -65.6142732 -9.42556918 -58 -11 C-56.906875 -11.226875 -55.81375 -11.45375 -54.6875 -11.6875 C-35.6028651 -13.30484194 -16.60235817 -9.6719594 0 0 Z " fill="#80B0FE" transform="translate(407,234)"/>
<path d="M0 0 C0 89.43 0 178.86 0 271 C-25.25966657 264.35271932 -51.2457393 255.44742241 -72.94161701 240.29923153 C-75.11794971 238.85974141 -75.11794971 238.85974141 -78.15044689 237.57254124 C-86.97146066 232.91585315 -86.97146066 232.91585315 -88.74775529 227.88015437 C-89.96302249 221.27513064 -89.62695022 214.54867422 -89.47583008 207.86499023 C-89.47216066 205.59768384 -89.47422628 203.33036201 -89.48158264 201.06306458 C-89.48530724 194.9219371 -89.4089782 188.78412193 -89.31812119 182.6437633 C-89.23675707 176.2217514 -89.22921029 169.79966032 -89.21379089 163.37721252 C-89.17799781 152.60226394 -89.09684644 141.82876081 -88.98071289 131.05444336 C-88.86125827 119.9604292 -88.76930288 108.86674482 -88.71411133 97.7722168 C-88.71069592 97.08757233 -88.70728052 96.40292785 -88.70376161 95.69753658 C-88.68679527 92.26263797 -88.67036728 88.82773703 -88.65420687 85.39283454 C-88.51958958 56.92772236 -88.28978247 28.46392631 -88 0 C-86.08384208 -0.97395638 -84.16584236 -1.94428977 -82.24707031 -2.91308594 C-81.17918274 -3.45382751 -80.11129517 -3.99456909 -79.01104736 -4.55169678 C-75.58583449 -6.19921216 -72.42186844 -7.2928779 -68.75 -8.25 C-67.65171875 -8.54390625 -66.5534375 -8.8378125 -65.421875 -9.140625 C-64.29265625 -9.42421875 -63.1634375 -9.7078125 -62 -10 C-61.36715088 -10.17877686 -60.73430176 -10.35755371 -60.08227539 -10.54174805 C-39.74421414 -16.11466975 -18.2259435 -9.11297175 0 0 Z " fill="#80B0FE" transform="translate(193,234)"/>
<path d="M0 0 C2 1 2 1 2.80615234 3.02758789 C3.67653876 6.03578942 4.54093213 9.04396865 5.375 12.0625 C5.68518066 13.17689453 5.99536133 14.29128906 6.31494141 15.43945312 C9.37918656 26.81316309 11.4739833 38.32405718 13 50 C13.08588379 50.65136932 13.17176758 51.30273865 13.26025391 51.97384644 C13.96337679 57.70538475 14.17448315 63.36161075 14.203125 69.1328125 C14.21018463 70.07916061 14.21724426 71.02550873 14.22451782 72.00053406 C14.45241099 111.51652112 14.45241099 111.51652112 11 128 C10.80132324 128.97485352 10.60264648 129.94970703 10.39794922 130.95410156 C0.27732806 179.3359774 -21.6391877 223.32428269 -56 259 C-56.94818604 259.9890332 -56.94818604 259.9890332 -57.91552734 260.99804688 C-79.23206235 283.11603117 -79.23206235 283.11603117 -91 289 C-91 213.43 -91 137.86 -91 60 C-90.67 60 -90.34 60 -90 60 C-89.67 108.84 -89.34 157.68 -89 208 C-84.55890372 203.55890372 -80.52814855 199.41964396 -76.75 194.5 C-76.28529297 193.89961914 -75.82058594 193.29923828 -75.34179688 192.68066406 C-73.88728431 190.7925384 -72.44285159 188.89704639 -71 187 C-70.54044922 186.40123047 -70.08089844 185.80246094 -69.60742188 185.18554688 C-28.66098496 131.65812792 -9.88497759 65.68920167 0 0 Z " fill="#EFC95F" transform="translate(498,174)"/>
<path d="M0 0 C0 20.46 0 40.92 0 62 C-21.69785709 67.10537814 -40.94875264 69.28705226 -63.0625 69.375 C-64.02956879 69.38285522 -64.99663757 69.39071045 -65.99301147 69.39880371 C-76.51831479 69.46521293 -86.86728018 69.1225135 -97.30859375 67.7265625 C-98.1184523 67.61871429 -98.92831085 67.51086609 -99.76271057 67.39974976 C-108.64218763 66.08559044 -117.18725924 63.95838684 -126 62 C-126 48.14 -126 34.28 -126 20 C-117.151875 19.5978125 -117.151875 19.5978125 -108.125 19.1875 C-72.25170974 17.40046242 -37.82550165 12.37198126 -3.77954102 0.53759766 C-2 0 -2 0 0 0 Z " fill="#F0C95E" transform="translate(319,443)"/>
<path d="M0 0 C0.23202697 10.17893356 0.40954331 20.35723517 0.51812172 30.53827763 C0.5702446 35.26629805 0.6408931 39.99250555 0.75439453 44.71948242 C0.86331296 49.28432857 0.92289307 53.84743526 0.94877243 58.41348076 C0.96720521 60.15240303 1.00320521 61.8912333 1.05730057 63.6294117 C1.46381176 77.23653086 1.46381176 77.23653086 -2.12442017 81.55931091 C-4.68437963 83.37863017 -7.14794107 84.69923796 -10 86 C-11.60831481 86.98994058 -13.20664843 87.99650692 -14.7890625 89.02734375 C-33.60973952 100.44641464 -53.1950529 110.69014557 -74.375 117 C-75.41805298 117.31167114 -75.41805298 117.31167114 -76.48217773 117.62963867 C-80.22611855 118.68514821 -83.03294797 119 -87 119 C-87 98.54 -87 78.08 -87 57 C-78.42 53.04 -69.84 49.08 -61 45 C-39.61800539 33.13738655 -19.9041787 19.15895098 -2.71484375 1.67578125 C-1 0 -1 0 0 0 Z " fill="#78A7EF" transform="translate(407,385)"/>
<path d="M0 0 C4.50242439 3.11979013 8.04733806 6.57951418 9.8125 11.875 C10.63914854 17.86229731 9.88415646 22.16187367 6.33203125 27.09375 C1.25484568 33.04541226 -3.71862922 34.43314274 -11.14941406 36.22241211 C-18.65353259 38.1002747 -25.32336468 41.37438489 -32.1875 44.875 C-33.28964844 45.4215625 -34.39179688 45.968125 -35.52734375 46.53125 C-50.74771743 54.35359963 -63.37222862 64.83863905 -75.28125 77.05859375 C-76.34496826 78.14406494 -76.34496826 78.14406494 -77.43017578 79.25146484 C-78.82423864 80.68064264 -80.20851576 82.11944892 -81.58154297 83.56884766 C-86.27161001 88.39335464 -89.74888321 90.49293147 -96.5625 91.25 C-102.35169164 90.65111811 -106.55251247 88.59603951 -110.5625 84.375 C-113.08075794 80.50075701 -114.48874768 77.74577253 -114.5625 73.0625 C-114.59085937 72.25167969 -114.61921875 71.44085938 -114.6484375 70.60546875 C-113.13388664 61.63368021 -105.20437294 55.15741403 -99.1875 48.875 C-98.37925781 48.01390625 -97.57101563 47.1528125 -96.73828125 46.265625 C-79.70912802 28.58908247 -25.69988646 -14.99561855 0 0 Z " fill="#FFE399" transform="translate(191.1875,36.125)"/>
<path d="M0 0 C0.77021484 0.37850098 1.54042969 0.75700195 2.33398438 1.14697266 C8.39226862 4.33224237 13.57813077 8.78126155 16.6875 15 C17.09081428 20.24308569 16.54801133 23.56127553 13.6875 28 C9.12765895 32.11497851 5.94956778 33.644522 -0.1484375 33.609375 C-5.78766605 32.52330135 -10.35248638 29.3023272 -15.23046875 26.38671875 C-34.86566787 14.68689298 -58.0716082 9.94553099 -80.48046875 14.9765625 C-92.36451145 18.15048624 -102.68182211 22.91207054 -113.13549805 29.39257812 C-118.77097974 32.72512348 -123.74118806 34.2986471 -130.3125 33 C-134.08181142 30.81129969 -136.54017042 28.30960233 -138.75 24.5625 C-139.80297576 19.76561042 -139.73794805 16.23156016 -138.125 11.5625 C-134.53596848 5.96010933 -128.00763689 3.08811478 -122.3125 0 C-121.69262207 -0.34208496 -121.07274414 -0.68416992 -120.43408203 -1.03662109 C-80.02941051 -23.11425724 -40.27989656 -20.35286081 0 0 Z " fill="#1B1A1A" transform="translate(425.3125,210)"/>
<path d="M0 0 C0.78697266 0.4036377 1.57394531 0.80727539 2.38476562 1.22314453 C8.47319482 4.47606729 13.64187521 8.35638204 16.5625 14.8125 C17.13520846 20.06232757 16.34422199 23.34187537 13.5625 27.8125 C10.8044408 31.00150595 8.87037693 32.50942808 4.59741211 33.07055664 C-1.78048213 33.33089333 -5.55628813 31.60055417 -10.875 28.25 C-31.12370119 16.30519596 -54.28953796 8.73147684 -77.78710938 14.3527832 C-90.42156821 17.67296068 -101.76238917 22.79648676 -113.1875 29.04296875 C-114.26 29.62691406 -115.3325 30.21085937 -116.4375 30.8125 C-117.14261719 31.21082031 -117.84773438 31.60914063 -118.57421875 32.01953125 C-122.41480069 33.65399275 -126.37958076 33.52933673 -130.4375 32.8125 C-134.23409099 30.73721534 -136.69142716 28.07758004 -138.875 24.375 C-139.92797576 19.57811042 -139.86294805 16.04406016 -138.25 11.375 C-134.66096848 5.77260933 -128.13263689 2.90061478 -122.4375 -0.1875 C-121.81762207 -0.52958496 -121.19774414 -0.87166992 -120.55908203 -1.22412109 C-80.1959341 -23.27906821 -40.13994757 -20.71513561 0 0 Z " fill="#1B1A1A" transform="translate(209.4375,210.1875)"/>
<path d="M0 0 C3.87556189 2.28747547 7.32175366 5.01206063 10.79248047 7.85668945 C22.71511217 17.58537963 35.3481833 24.31794628 50 29 C50.80284424 29.26997803 51.60568848 29.53995605 52.43286133 29.81811523 C61.26433923 32.54802156 69.88281162 32.43466761 79.05664062 32.43945312 C90.28985789 32.61525631 90.28985789 32.61525631 95 37 C97.88516342 40.4621961 98.53917865 43.48796884 98.3515625 48.0078125 C97.58808208 52.33420153 95.20948052 55.12445715 91.73632812 57.63867188 C86.65051916 60.16887091 81.07871592 59.52820057 75.5 59.5 C74.20223633 59.49427979 72.90447266 59.48855957 71.56738281 59.48266602 C38.89503494 58.88411634 10.88009746 43.41653897 -13.4765625 22.60546875 C-16.39289749 19.53210033 -17.29069056 16.757183 -17.3125 12.5625 C-17.20789262 8.58088168 -16.65325778 6.11071602 -14 3 C-9.92111125 -0.47905217 -5.16030567 -1.07612286 0 0 Z " fill="#1B1B19" transform="translate(303,103)"/>
<path d="M0 0 C3.53050621 1.24221515 5.40967318 2.33096294 7.875 5.125 C9.42476282 9.085505 9.8726952 12.81518601 9 17 C-2.74930983 37.66257936 -33.38421667 49.72205054 -55 56 C-56.15371094 56.34289062 -57.30742187 56.68578125 -58.49609375 57.0390625 C-67.11423002 59.17117945 -75.71652653 59.36564507 -84.5625 59.5 C-86.40207275 59.54616455 -86.40207275 59.54616455 -88.27880859 59.59326172 C-98.06885844 59.594613 -98.06885844 59.594613 -101.75390625 56.58203125 C-105.42306313 52.36409613 -106.47755019 49.79629697 -106.31640625 44.02734375 C-105.78426659 40.61770816 -104.21560602 38.57489349 -102 36 C-98.41699238 33.44688887 -95.95028351 32.62729547 -91.5703125 32.59375 C-90.01775757 32.56462524 -90.01775757 32.56462524 -88.43383789 32.53491211 C-87.34192139 32.52339111 -86.25000488 32.51187012 -85.125 32.5 C-67.9639771 32.01992846 -54.34307318 28.6855999 -39 21 C-38.03416992 20.51805176 -38.03416992 20.51805176 -37.04882812 20.02636719 C-28.63203028 15.73780829 -21.66496421 10.56904744 -14.64453125 4.3203125 C-9.60249451 -0.10357203 -6.49604219 -0.71067812 0 0 Z " fill="#1B1B19" transform="translate(217,103)"/>
<path d="M0 0 C3.66526403 3.48750296 4.35591703 6.60716071 4.56640625 11.609375 C4.27590871 16.66782133 3.63243668 19.85584457 -0.05859375 23.546875 C-4.88207121 26.87413277 -9.16440121 28.41650996 -15.05859375 27.546875 C-18.38168962 26.38087645 -21.62965648 25.10576693 -24.875 23.73828125 C-37.2028269 19.12480002 -49.91798787 20.78676237 -61.85449219 25.41235352 C-67.12680957 27.43236861 -71.8532648 28.76231853 -77.38671875 26.6640625 C-81.7505899 23.84351163 -84.52519045 21.72211115 -86.05859375 16.546875 C-86.84817055 11.1663568 -87.17059836 6.20413491 -83.80859375 1.671875 C-64.75668317 -16.89266112 -20.47495591 -14.45291005 0 0 Z " fill="#1B1A19" transform="translate(297.05859375,381.453125)"/>
<path d="M0 0 C6.24934617 0.53826234 12.41004333 1.34176031 18.59887695 2.3581543 C41.27418095 6.07734687 64.04456684 8.16828141 87 9 C87 22.53 87 36.06 87 50 C83.21746552 50.94563362 82.41840324 51.1067244 78.97265625 50.1015625 C77.80126099 49.7610083 77.80126099 49.7610083 76.60620117 49.41357422 C75.76677979 49.15334473 74.9273584 48.89311523 74.0625 48.625 C73.17860596 48.35316895 72.29471191 48.08133789 71.3840332 47.80126953 C49.12167536 40.72556028 27.77237804 29.90357671 8.0625 17.4375 C7.24507324 16.95635742 6.42764648 16.47521484 5.58544922 15.97949219 C3.27741905 14.44953459 1.63481016 13.24029541 0 11 C-0.65039579 7.23621305 -0.49094948 3.77578633 0 0 Z " fill="#79A7EF" transform="translate(105,453)"/>
<path d="M0 0 C10.55808656 0.77904328 10.55808656 0.77904328 15 3 C15 5.97 15 8.94 15 12 C11.46357563 10.23178782 8.86931629 8.4562896 5.8125 6 C4.93207031 5.29875 4.05164063 4.5975 3.14453125 3.875 C1 2 1 2 0 0 Z " fill="#F0C95D" transform="translate(89,450)"/>
</svg>
